<svg id="Layer_1" data-name="Layer 1" xmlns="http://www.w3.org/2000/svg" xmlns:xlink="http://www.w3.org/1999/xlink" viewBox="0 0 1082 1080"><defs><style>.cls-1{fill:none;}.cls-2{clip-path:url(#clip-path);}.cls-3{fill:#020202;}.cls-10,.cls-4,.cls-8{fill:#fccd06;}.cls-5{fill:#fff;}.cls-6,.cls-7{fill:#ffcf06;}.cls-6{stroke:#fcfcfc;}.cls-10,.cls-11,.cls-13,.cls-6,.cls-8{stroke-miterlimit:10;}.cls-8{stroke:#f9f9f9;}.cls-10,.cls-8{stroke-width:20px;}.cls-9{fill:#fdfdff;}.cls-10,.cls-11,.cls-13{stroke:#fff;}.cls-11{fill:#fffffd;stroke-width:5px;}.cls-12{fill:#fcfcfc;}.cls-13{fill:#fcfcfa;stroke-width:4px;}</style><clipPath id="clip-path" transform="translate(2 0)"><rect class="cls-1" x="-2" width="1082" height="1080"/></clipPath></defs><g class="cls-2"><rect class="cls-3" width="1082" height="1080"/><path class="cls-4" d="M743.63,389.44c.2,2.16-.86,4.58-2,7q-16,32.57-32,65.15c-5.33,10.85-10.62,21.74-16.05,32.55-3.66,7.28-10.95,9.81-18.33,6.58-7.78-3.41-10.76-11.18-7.14-19.23,2.79-6.22,5.85-12.32,8.85-18.44q19.41-39.72,38.86-79.43c1.26-2.57,2.44-5.17,4.91-6.9,4.73-3.33,9.63-4.06,14.88-1.26S743.51,382.84,743.63,389.44Z" transform="translate(2 0)"/><path class="cls-4" d="M729.38,501c-11.08-.17-17.22-10.47-12.38-21.37,4.37-9.85,9-19.61,14-29.17,5.09-9.77,9.74-19.74,14.52-29.66,2.71-5.64,7-8.91,13.5-8.84,7.84.08,13.24,5.17,13.83,13a21.52,21.52,0,0,1-2.58,11.44q-13.85,27.76-27.58,55.6C739.9,497.64,736,501.21,729.38,501Z" transform="translate(2 0)"/><path class="cls-5" d="M346.84,586.49a16.66,16.66,0,0,1-1.8,7.66c-9.29,19.7-18.46,39.46-27.85,59.12-4.07,8.52-12.62,11-20.39,6.36-5.17-3.1-7.36-8-6.38-14,.67-4.2,2.46-8,4.24-11.76q12.39-26.26,24.89-52.49c4.33-9.16,12.55-12.21,20.48-7.59C344.92,576.62,346.72,581.12,346.84,586.49Z" transform="translate(2 0)"/><path class="cls-6" d="M444.5,910.67c-5.88-20.59-11.24-41.32-16.83-62-5.25-19.4-10.72-38.74-15.75-58.2-2.25-8.68-4.24-17.41-7.12-25.91a3.58,3.58,0,0,1,.57-3.71c.86,1.54,1.74,3.06,2.58,4.6,12.16,22.38,28.9,40.27,51.44,52.5,26.32,14.27,54.23,19.24,83.61,13.15,41.57-8.63,71.52-32.28,89.51-70.87,5.65-12.1,8.4-24.94,10.31-38,1.12-.8,1.11-1.71.24-2.69l.45-14c3.47,5.21,4.19,11.4,5.57,17.22,6.52,27.53,14.65,54.61,21.86,81.95,5.76,21.83,11.87,43.56,17.35,65.46,2.76,11,5.47,22.08,9,33.19,3.76,0-52.18,18.07-88.46,21.83-53.8,5.58-107.35,2.69-160.59-6.58C445.87,918.16,445.62,914.59,444.5,910.67Z" transform="translate(2 0)"/><path class="cls-7" d="M419.71,362.23c-.74.08-1.38,2.84-2,.6-6.09-22.17-12-44.41-17.85-66.64-6-22.87-11.94-45.78-18-68.65-4.09-15.46-8.33-30.89-12.48-46.34-.46-1.69-.75-3.42-1.11-5.13,14.25-7.49,29.39-12.79,44.69-17.6,30.61-9.63,62.12-14.15,94.07-15.61,33-1.5,65.95-.81,98.75,3.63,3.47.47,6.9,1.25,10.35,1.89-.82,1.09,40.53,152.16,40.56,156.81,0,0-60.39-64.41-98.56-69.08-51.6-6.31-103.07,22-125.14,69a142.05,142.05,0,0,0-12.95,48.16C418.48,355.08,419.72,361.14,419.71,362.23Z" transform="translate(2 0)"/><path class="cls-8" d="M445.91,918.16c-7.13-.16-18.05-4-24.9-5.56-45.6-10.12-89.4-25.3-130.7-47.3-30.24-16.11-58.69-34.86-84.46-57.53-1-.87-2-1.76-2.91-2.69-3.43-3.44-3.49-3.5-.21-7.42q26.93-32.17,53.89-64.31c10.16-12.17,20.18-24.45,30.3-36.66,3.79-4.58,4.68-5.46-1.68-8.28-17.41-7.73-33.68-31.54-23.53-57.26,9.37-23.75,20.54-46.74,32.51-69.31a37.8,37.8,0,0,1,15-15.06c-.21-2.21-1.69-2.91-2.87-3.81C262.6,509.45,240,464.6,235.52,410.24c-3.4-41.29,2.11-81.35,18.69-119.49,18.3-42.08,48.17-74.33,86.33-99.2,9-5.88,18.13-11.69,28.21-15.72.37,1.71.65,3.44,1.11,5.13,4.15,15.45,8.4,30.88,12.48,46.34,6.05,22.87,12,45.78,18,68.65,5.87,22.23,11.76,44.47,17.85,66.64.61,2.24,17,62.5,39.54,84.29C482,470.41,511,483.05,545,483.38a127.27,127.27,0,0,0,47.12-8.89c14.28-5.49,28.37-5.38,42.31,1.22a28,28,0,0,0,5.56,2.07c5.86,1.39,10.87-.09,14.85-4.76a31.38,31.38,0,0,0,4.1-6.74q15.35-31.08,30.72-62.13c3.69-7.5,7.54-14.94,10.86-22.61,4.36-10.06,2-16.58-5.8-21-1.53-.86-2.89-2-4.43-2.87-12.59-6.93-20.7-17.71-25.51-30.89-4-11-13.61-41.69-14.77-46.12-5.15-19.71-10.44-39.37-15.67-59.06q-4.39-16.5-8.74-33c-3.25-12.27-6.46-24.55-9.79-36.8a3.83,3.83,0,0,1,.78-3.64c12.57.79,24.82,3.56,37.08,6.18a448.54,448.54,0,0,1,184.1,84.37c5.13,3.91,5.13,4,1.41,9.36q-36.57,53-73.21,106c-1.55,2.24-2.29,3.89-.21,6.34a39.26,39.26,0,0,1,8.55,19.07c.52,3,1.64,5,4.71,6.41,23.47,10.79,29.25,38.82,22.8,56a263.43,263.43,0,0,1-11.71,25.86q-9.09,18-18.15,36c-2.37,4.71-2.41,4.81,2.08,7.79a235.4,235.4,0,0,1,35.1,27.94c27.55,27,43.76,59.91,50.31,97.62a259.72,259.72,0,0,1-2.37,100.42c-11.52,53.06-40,95.25-82.91,128.07-5.6,4.29-27.46,16.11-29,17-11.85,7.27-43.79,20.55-47.54,20.57-3.52-11.1-6.23-22.14-9-33.19-5.48-21.89-11.59-43.63-17.34-65.46-7.21-27.33-15.35-54.42-21.86-82-1.38-5.82-2.11-12-5.57-17.22a14.69,14.69,0,0,1-.67-2.48c-1.83-20.69-7.37-40.19-18.44-57.93-19.75-31.67-48.28-50.74-84.73-57.71-23.32-4.46-46.06-1.24-68,7.86-10.46,4.35-21.27,5.11-32.4,3.66-5.74-.75-11.09-2.72-16.54-4.45-7.34-2.34-12.26-.67-16.61,5.65a59.27,59.27,0,0,0-4.86,8.61Q382.8,649.24,364.05,690c-4.07,8.86-1.63,16.81,6.64,22.27,4.59,3,9.35,5.83,13.76,9.1a38.43,38.43,0,0,1,13.23,17c2.87,7.36,5.4,14.85,8.09,22.29a3.59,3.59,0,0,0-.57,3.71c2.88,8.5,4.87,17.24,7.11,25.92,5,19.45,10.51,38.79,15.75,58.2C433.65,869.17,446.19,915.46,445.91,918.16Z" transform="translate(2 0)"/><path class="cls-9" d="M743.63,389.44c-.12-6.6-2.65-11.14-8-14s-10.15-2.07-14.88,1.26c-2.47,1.73-3.65,4.33-4.91,6.9Q696.38,423.31,676.94,463c-3,6.12-6.06,12.22-8.85,18.44-3.62,8.05-.64,15.82,7.14,19.23,7.38,3.23,14.67.7,18.33-6.58,5.43-10.81,10.72-21.7,16.05-32.55q16-32.58,32-65.15C742.77,394,743.83,391.6,743.63,389.44Z" transform="translate(2 0)"/><path class="cls-4" d="M320.67,684.08c.11,6.54,3.6,11.58,9.49,13.71s11.38.48,15.74-5a32.61,32.61,0,0,0,4.21-7.45c11.31-25.78,23.69-51.06,35.66-76.53,2.9-6.17,5.9-12.31,8.46-18.62a14.07,14.07,0,0,0-6.48-18.07c-6.39-3.29-14.27-1.11-18.49,5.35a62.23,62.23,0,0,0-3.9,7.63c-5.63,11.93-11.2,23.89-16.83,35.82q-12.82,27.13-25.71,54.24A21.08,21.08,0,0,0,320.67,684.08Z" transform="translate(2 0)"/><path class="cls-9" d="M729.38,501c6.61.21,10.52-3.36,13.29-9q13.68-27.86,27.58-55.6A21.52,21.52,0,0,0,772.83,425c-.59-7.84-6-12.93-13.83-13-6.5-.07-10.79,3.2-13.5,8.84-4.78,9.92-9.43,19.89-14.52,29.66-5,9.56-9.61,19.32-14,29.17C712.16,490.53,718.3,500.83,729.38,501Z" transform="translate(2 0)"/><path class="cls-9" d="M346.84,586.49c-.12-5.37-1.92-9.87-6.81-12.72-7.93-4.62-16.15-1.57-20.48,7.59q-12.45,26.24-24.89,52.49c-1.78,3.77-3.57,7.56-4.24,11.76-1,6,1.21,10.92,6.38,14,7.77,4.66,16.32,2.16,20.39-6.36,9.39-19.66,18.56-39.42,27.85-59.12A16.66,16.66,0,0,0,346.84,586.49Z" transform="translate(2 0)"/><path class="cls-10" d="M643.33,723.19c-1.91,13.08-4.66,25.92-10.3,38-18,38.59-47.95,62.24-89.51,70.86-29.39,6.1-57.3,1.13-83.62-13.15-22.54-12.23-39.28-30.11-51.44-52.49-.84-1.54-1.71-3.07-2.58-4.6-2.68-7.44-5.21-14.93-8.09-22.3a38.38,38.38,0,0,0-13.22-17c-4.42-3.27-9.17-6.08-13.76-9.11-8.28-5.46-10.72-13.41-6.64-22.27q18.75-40.78,37.65-81.49a59.27,59.27,0,0,1,4.86-8.61c4.35-6.31,9.26-8,16.6-5.65,5.46,1.73,10.8,3.7,16.55,4.45,11.13,1.45,21.94.69,32.4-3.66,21.9-9.09,44.64-12.31,68-7.85,36.45,7,65,26,84.73,57.7C636,663.8,641.53,683.3,643.36,704a14.14,14.14,0,0,0,.67,2.49c-.16,4.67-.31,9.35-.46,14A2.85,2.85,0,0,0,643.33,723.19Z" transform="translate(2 0)"/><path class="cls-11" d="M616.62,715.65c1.22-.61.92-1.32.91-1.86-.49-29.13-10.56-54.34-32.16-74.07-22.62-20.66-49.27-30.12-80.17-25.22a43,43,0,0,0-12.69,3.61C554.2,626,593.44,660.86,616.62,715.65Z" transform="translate(2 0)"/><path class="cls-9" d="M320.67,684.08a21.08,21.08,0,0,1,2.15-8.9q12.9-27.1,25.71-54.24c5.63-11.93,11.2-23.89,16.83-35.82a62.23,62.23,0,0,1,3.9-7.63c4.22-6.46,12.1-8.64,18.49-5.35a14.07,14.07,0,0,1,6.48,18.07c-2.56,6.31-5.56,12.45-8.46,18.62-12,25.47-24.35,50.75-35.66,76.53a32.61,32.61,0,0,1-4.21,7.45c-4.36,5.46-9.72,7.16-15.74,5S320.78,690.62,320.67,684.08Z" transform="translate(2 0)"/><path class="cls-12" d="M572.92,452.13C518.23,473,443.1,424.46,447.53,351.48,470.2,410,511.28,443.71,572.92,452.13Z" transform="translate(2 0)"/><path class="cls-10" d="M421,343.54c2.18-13,5.19-25.82,11.09-37.8,18.79-38.21,49.23-61.23,91-69,29.51-5.48,57.31.06,83.33,14.89,22.28,12.69,38.64,30.92,50.33,53.55.81,1.56,1.65,3.1,2.48,4.65,2.53,7.5,4.91,15,7.63,22.46a38.37,38.37,0,0,0,12.87,17.26c4.34,3.36,9,6.27,13.57,9.39,8.16,5.63,10.43,13.63,6.17,22.4Q679.84,421.73,660.1,462a59.11,59.11,0,0,1-5.05,8.5c-4.47,6.23-9.42,7.8-16.71,5.31-5.42-1.85-10.72-3.93-16.45-4.79-11.1-1.69-21.92-1.15-32.47,3-22.08,8.64-44.89,11.39-68.11,6.44C485,472.76,456.89,453.11,437.8,421c-10.7-18-15.83-37.58-17.23-58.3a15,15,0,0,0-.62-2.5l.75-14A2.87,2.87,0,0,0,421,343.54Z" transform="translate(2 0)"/><path class="cls-13" d="M447.54,351.63c-1.23.59-.94,1.29-.94,1.84-.12,29.13,9.43,54.55,30.61,74.72,22.19,21.13,48.63,31.14,79.62,26.88a43.46,43.46,0,0,0,12.77-3.34C508.09,442.52,469.58,406.89,447.54,351.63Z" transform="translate(2 0)"/></g></svg>