<svg id="Layer_1" data-name="Layer 1" xmlns="http://www.w3.org/2000/svg" xmlns:xlink="http://www.w3.org/1999/xlink" viewBox="0 0 1182 1579.7"><defs><style>.cls-1{fill:none;}.cls-2{fill:#020202;}.cls-3{clip-path:url(#clip-path);}.cls-4,.cls-8{fill:#fccd06;}.cls-5{fill:#fff;}.cls-6{fill:#fdfdff;}.cls-7{fill:#f9f9f9;}.cls-8{stroke:#fff;stroke-miterlimit:10;stroke-width:4px;}.cls-9{fill:#fcfcfc;}</style><clipPath id="clip-path" transform="translate(102)"><rect class="cls-1" width="1080" height="1080"/></clipPath></defs><rect class="cls-2" x="102" width="1080" height="1080"/><path d="M-101.7,1579.7a4.6,4.6,0,0,1,.4-4.1C-100,1577.1-100,1578.4-101.7,1579.7Z" transform="translate(102)"/><g class="cls-3"><path class="cls-4" d="M730.6,389.4c.2,2.2-.8,4.6-2,7-10.7,21.7-21.3,43.4-32,65.2-5.3,10.8-10.6,21.7-16,32.5-3.7,7.3-11,9.8-18.4,6.6s-10.7-11.2-7.1-19.2c2.8-6.3,5.8-12.4,8.8-18.5,13-26.5,26-52.9,38.9-79.4,1.3-2.6,2.4-5.2,4.9-6.9,4.7-3.3,9.6-4.1,14.9-1.3S730.5,382.8,730.6,389.4Z" transform="translate(102)"/><path class="cls-4" d="M716.4,501c-11.1-.2-17.2-10.5-12.4-21.4s9-19.6,14-29.1,9.7-19.8,14.5-29.7c2.7-5.6,7-8.9,13.5-8.8s13.2,5.1,13.8,13a21.4,21.4,0,0,1-2.5,11.4q-13.9,27.8-27.6,55.6C726.9,497.6,723,501.2,716.4,501Z" transform="translate(102)"/><path class="cls-5" d="M333.8,586.5a15.5,15.5,0,0,1-1.8,7.6c-9.2,19.8-18.4,39.5-27.8,59.2-4.1,8.5-12.6,11-20.4,6.3-5.2-3.1-7.4-8-6.4-14,.7-4.2,2.5-8,4.3-11.8,8.2-17.5,16.6-34.9,24.8-52.4,4.4-9.2,12.6-12.3,20.5-7.6C331.9,576.6,333.7,581.1,333.8,586.5Z" transform="translate(102)"/><path class="cls-4" d="M428.7,916.6c-7.1-.2-13.8-2.5-20.7-4-45.6-10.1-89.4-25.3-130.7-47.3-30.2-16.1-58.7-34.9-84.5-57.5l-2.9-2.7c-3.4-3.5-3.4-3.5-.2-7.4,18-21.5,36-42.9,53.9-64.4,10.2-12.1,20.2-24.4,30.3-36.6,3.8-4.6,4.7-5.5-1.7-8.3-17.4-7.7-33.6-31.5-23.5-57.2a684.1,684.1,0,0,1,32.5-69.4,38,38,0,0,1,15-15c-.2-2.2-1.7-2.9-2.8-3.8-43.8-33.5-66.4-78.4-70.9-132.8-3.4-41.2,2.1-81.3,18.7-119.5,18.3-42,48.2-74.3,86.3-99.2,9.1-5.8,18.2-11.6,28.2-15.7.4,1.7.7,3.5,1.2,5.2,4.1,15.4,8.4,30.8,12.4,46.3,6.1,22.9,12,45.8,18,68.6s11.8,44.5,17.9,66.7c.6,2.2,1.2-.5,2-.6l.6,5.2c2.8,30.9,14.4,57.9,36.9,79.7C469,470.4,498,483,532,483.4a128.3,128.3,0,0,0,47.1-8.9c14.3-5.5,28.4-5.4,42.4,1.2a26,26,0,0,0,5.5,2.1c5.9,1.4,10.9-.1,14.9-4.8a35.4,35.4,0,0,0,4.1-6.7c10.2-20.7,20.5-41.4,30.7-62.2,3.7-7.5,7.5-14.9,10.9-22.6,4.3-10,2-16.5-5.9-20.9-1.5-.9-2.8-2.1-4.4-2.9-12.6-7-20.7-17.7-25.5-30.9-4-11-8-21.9-13.5-32.1h.8l.8.5-.5-.9c0-4.6-1.2-9.1-2.4-13.5-5.1-19.7-10.4-39.4-15.6-59.1-3-11-5.9-22-8.8-33s-6.4-24.6-9.8-36.8a4,4,0,0,1,.8-3.7c12.6.8,24.8,3.6,37.1,6.2a446.9,446.9,0,0,1,184.1,84.4c5.1,3.9,5.1,4,1.4,9.3-24.4,35.4-48.7,70.8-73.2,106.1-1.5,2.2-2.3,3.9-.2,6.3a38.6,38.6,0,0,1,8.5,19.1c.6,3,1.7,5,4.8,6.4,23.4,10.8,29.2,38.8,22.8,56a272.6,272.6,0,0,1-11.8,25.8l-18.1,36c-2.4,4.7-2.4,4.8,2.1,7.8a241.6,241.6,0,0,1,35.1,27.9c27.5,27,43.7,59.9,50.3,97.6a261.5,261.5,0,0,1-2.4,100.5c-11.5,53-40,95.2-82.9,128-5.6,4.3-11.5,8.2-17.3,12.3-1.9,1.3-3.8,2.9-6.3,3.3-2.3-1.3-3.9.5-5.4,1.5-11.8,7.2-24.6,12.6-37.4,17.8-3.2,1.3-6.4,2.7-10.1,2.7-3.5-11.1-6.3-22.1-9-33.1-5.5-21.9-11.6-43.7-17.4-65.5-7.2-27.3-15.3-54.4-21.8-82-1.4-5.8-2.1-12-5.6-17.2a18.2,18.2,0,0,1-.7-2.5c-1.8-20.6-7.3-40.2-18.4-57.9-19.7-31.7-48.3-50.7-84.7-57.7-23.3-4.5-46.1-1.2-68,7.9-10.4,4.3-21.3,5.1-32.4,3.6-5.7-.7-11.1-2.7-16.5-4.4-7.4-2.4-12.3-.7-16.6,5.6a56.1,56.1,0,0,0-4.9,8.6c-12.6,27.2-25.1,54.3-37.6,81.5-4.1,8.9-1.7,16.8,6.6,22.3,4.6,3,9.3,5.8,13.8,9.1a38.8,38.8,0,0,1,13.2,17c2.8,7.3,5.4,14.8,8.1,22.3a3.6,3.6,0,0,0-.6,3.7c2.9,8.5,4.9,17.2,7.1,25.9,5,19.5,10.5,38.8,15.8,58.2s10.9,41.4,16.8,62C433,914.4,431.7,915.6,428.7,916.6Z" transform="translate(102)"/><path class="cls-6" d="M730.6,389.4c-.1-6.6-2.6-11.1-8-14s-10.2-2-14.9,1.3c-2.5,1.7-3.6,4.3-4.9,6.9-12.9,26.5-25.9,52.9-38.9,79.4-3,6.1-6,12.2-8.8,18.5-3.6,8-.7,15.8,7.1,19.2s14.7.7,18.4-6.6c5.4-10.8,10.7-21.7,16-32.5,10.7-21.8,21.3-43.5,32-65.2C729.8,394,730.8,391.6,730.6,389.4Z" transform="translate(102)"/><path class="cls-4" d="M307.7,684.1c.1,6.5,3.6,11.6,9.5,13.7s11.3.5,15.7-5a32,32,0,0,0,4.2-7.4c11.3-25.8,23.7-51.1,35.7-76.6,2.9-6.1,5.9-12.3,8.4-18.6a14.1,14.1,0,0,0-6.5-18.1c-6.3-3.3-14.2-1.1-18.4,5.4a54.5,54.5,0,0,0-3.9,7.6c-5.7,11.9-11.2,23.9-16.9,35.8q-12.7,27.1-25.7,54.3A20.8,20.8,0,0,0,307.7,684.1Z" transform="translate(102)"/><path class="cls-6" d="M716.4,501c6.6.2,10.5-3.4,13.3-9q13.6-27.9,27.6-55.6a21.4,21.4,0,0,0,2.5-11.4c-.6-7.9-6-13-13.8-13s-10.8,3.2-13.5,8.8c-4.8,9.9-9.4,19.9-14.5,29.7s-9.6,19.3-14,29.1S705.3,500.8,716.4,501Z" transform="translate(102)"/><path class="cls-6" d="M333.8,586.5c-.1-5.4-1.9-9.9-6.8-12.7-7.9-4.7-16.1-1.6-20.5,7.6-8.2,17.5-16.6,34.9-24.8,52.4-1.8,3.8-3.6,7.6-4.3,11.8-1,6,1.2,10.9,6.4,14,7.8,4.7,16.3,2.2,20.4-6.3,9.4-19.7,18.6-39.4,27.8-59.2A15.5,15.5,0,0,0,333.8,586.5Z" transform="translate(102)"/><path class="cls-7" d="M428.7,916.6c3-1,4.3-2.2,3.2-6.1-5.9-20.6-11.2-41.3-16.8-62s-10.8-38.7-15.8-58.2c-2.2-8.7-4.2-17.4-7.1-25.9a3.6,3.6,0,0,1,.6-3.7c.8,1.5,1.7,3,2.5,4.6,12.2,22.4,28.9,40.2,51.5,52.5C473.1,832,501,837,530.4,830.9c41.6-8.6,71.5-32.3,89.5-70.8,5.7-12.1,8.4-25,10.3-38.1a1.6,1.6,0,0,0,.3-2.7c.1-4.6.3-9.3.4-14,3.5,5.2,4.2,11.4,5.6,17.2,6.5,27.6,14.6,54.7,21.8,82,5.8,21.8,11.9,43.6,17.4,65.5,2.7,11,5.5,22,9,33.1,3.7,0-52.2,18.1-88.5,21.9-53.8,5.6-107.3,2.7-160.6-6.6A28.1,28.1,0,0,1,428.7,916.6Z" transform="translate(102)"/><path class="cls-7" d="M407.2,362c-.8.1-1.4,2.8-2,.6-6.1-22.2-12-44.4-17.9-66.7s-11.9-45.7-18-68.6c-4-15.5-8.3-30.9-12.4-46.3-.5-1.7-.8-3.5-1.2-5.2,14.3-7.5,29.4-12.8,44.7-17.6,30.6-9.6,62.2-14.1,94.1-15.6s66-.8,98.8,3.7c3.4.4,6.9,1.2,10.3,1.8a4,4,0,0,0-.8,3.7c3.4,12.2,6.6,24.5,9.8,36.8s5.8,22,8.8,33c5.2,19.7,10.5,39.4,15.6,59.1,1.2,4.4,2.4,8.9,2.4,13.5l-.3.4h-.8c-1-1.5-2.1-2.9-3.1-4.3-22-31.2-51.4-49.9-89.6-54.5-51.6-6.3-103.1,22-125.1,69a141.5,141.5,0,0,0-13,48.1C405.9,354.8,407.2,360.9,407.2,362Z" transform="translate(102)"/><path class="cls-8" d="M407.2,362v-3.3c.6-1.8,6.1-38.5,13.3-53.8,22-47,73.5-75.3,125.1-69,38.2,4.6,67.6,23.3,89.6,54.5,1,1.4,2.1,2.8,3.1,4.3,5.5,10.2,9.5,21.1,13.5,32.1,4.8,13.2,12.9,23.9,25.5,30.9,1.6.8,2.9,2,4.4,2.9,7.9,4.4,10.2,10.9,5.9,20.9-3.4,7.7-7.2,15.1-10.9,22.6-10.2,20.8-20.5,41.5-30.7,62.2a35.4,35.4,0,0,1-4.1,6.7c-4,4.7-9,6.2-14.9,4.8a26,26,0,0,1-5.5-2.1c-14-6.6-28.1-6.7-42.4-1.2a128.3,128.3,0,0,1-47.1,8.9c-34-.4-63-13-87.3-36.5-22.5-21.8-34.1-48.8-36.9-79.7Zm152.7,90.1c-61.6-8.4-102.7-42.1-125.4-100.6C430.1,424.5,505.2,473,559.9,452.1Z" transform="translate(102)"/><path class="cls-8" d="M630.2,722c-1.9,13.1-4.6,26-10.3,38.1-18,38.5-47.9,62.2-89.5,70.8-29.4,6.1-57.3,1.1-83.6-13.1-22.6-12.3-39.3-30.1-51.5-52.5-.8-1.6-1.7-3.1-2.5-4.6-2.7-7.5-5.3-15-8.1-22.3a38.8,38.8,0,0,0-13.2-17c-4.5-3.3-9.2-6.1-13.8-9.1-8.3-5.5-10.7-13.4-6.6-22.3,12.5-27.2,25-54.3,37.6-81.5a56.1,56.1,0,0,1,4.9-8.6c4.3-6.3,9.2-8,16.6-5.6,5.4,1.7,10.8,3.7,16.5,4.4,11.1,1.5,22,.7,32.4-3.6,21.9-9.1,44.7-12.4,68-7.9,36.4,7,65,26,84.7,57.7,11.1,17.7,16.6,37.3,18.4,57.9a18.2,18.2,0,0,0,.7,2.5c-.1,4.7-.3,9.4-.4,14A2.9,2.9,0,0,0,630.2,722Zm-26.7-7.5c1.2-.6.9-1.3.9-1.9-.5-29.1-10.6-54.3-32.1-74s-49.3-30.2-80.2-25.3a43.6,43.6,0,0,0-12.7,3.7C541.1,624.9,580.3,659.7,603.5,714.5Z" transform="translate(102)"/><path class="cls-6" d="M307.7,684.1a20.8,20.8,0,0,1,2.1-8.9q12.9-27.2,25.7-54.3c5.7-11.9,11.2-23.9,16.9-35.8a54.5,54.5,0,0,1,3.9-7.6c4.2-6.5,12.1-8.7,18.4-5.4a14.1,14.1,0,0,1,6.5,18.1c-2.5,6.3-5.5,12.5-8.4,18.6-12,25.5-24.4,50.8-35.7,76.6a32,32,0,0,1-4.2,7.4c-4.4,5.5-9.7,7.2-15.7,5S307.8,690.6,307.7,684.1Z" transform="translate(102)"/><path class="cls-9" d="M559.9,452.1C505.2,473,430.1,424.5,434.5,351.5,457.2,410,498.3,443.7,559.9,452.1Z" transform="translate(102)"/><path class="cls-9" d="M603.5,714.5c-23.2-54.8-62.4-89.6-124.1-97.5a43.6,43.6,0,0,1,12.7-3.7c30.9-4.9,57.5,4.6,80.2,25.3s31.6,44.9,32.1,74C604.4,713.2,604.7,713.9,603.5,714.5Z" transform="translate(102)"/></g></svg>