<svg id="Layer_1" data-name="Layer 1" xmlns="http://www.w3.org/2000/svg" xmlns:xlink="http://www.w3.org/1999/xlink" viewBox="0 0 123.39 33.09"><defs><style>.cls-1{fill:none;}.cls-2{clip-path:url(#clip-path);}.cls-3,.cls-7,.cls-9{fill:#fccd06;}.cls-4{fill:#fff;}.cls-5,.cls-6{fill:#ffcf06;}.cls-5{stroke:#fcfcfc;}.cls-10,.cls-12,.cls-5,.cls-7,.cls-9{stroke-miterlimit:10;}.cls-10,.cls-12,.cls-5{stroke-width:0.5px;}.cls-7{stroke:#f9f9f9;}.cls-8{fill:#fdfdff;}.cls-10,.cls-12,.cls-9{stroke:#fff;}.cls-10{fill:#fffffd;}.cls-11{fill:#fcfcfc;}.cls-12{fill:#fcfcfa;}</style><clipPath id="clip-path" transform="translate(-16.66 -3.93)"><rect class="cls-1" width="150" height="40"/></clipPath></defs><g class="cls-2"><path d="M16.66,29.06l5.07-6c1.48,1.84,2.88,2.76,4.44,2.76,2,0,3-1.2,3-3.48V11.72H19.69V4.6H38.52V21.79c0,7.67-4,11.43-11.55,11.43C22.61,33.22,19,31.78,16.66,29.06Z" transform="translate(-16.66 -3.93)"/><path d="M57.45,20.83V32.58H49.06V29.7C48,31.9,45.94,33,42.87,33c-5.36,0-8.12-3-8.12-6.8,0-4.23,3.2-6.59,10-6.59h3.64C48.1,17.91,46.82,17,44.26,17a9.86,9.86,0,0,0-5.59,1.72L35.79,12.8a19.84,19.84,0,0,1,9.83-2.48C53.14,10.32,57.45,13.56,57.45,20.83Zm-9,4.64V24H46.18c-1.92,0-2.75.64-2.75,1.84,0,1,.79,1.75,2.15,1.75A2.86,2.86,0,0,0,48.42,25.47Z" transform="translate(-16.66 -3.93)"/><path d="M92.85,11.32v8a12.41,12.41,0,0,0-2-.16c-2.72,0-4.64,1.24-4.64,4.72v9.71h-9V11.72h8.59v2.36C87.38,12.24,89.82,11.32,92.85,11.32Z" transform="translate(-16.66 -3.93)"/><path d="M115.59,11.72V33.58H107V31.5A8.48,8.48,0,0,1,100.8,34c-5.23,0-9.19-3.08-9.19-10.19V11.72h9V22.23c0,3.12,1.08,4.16,2.84,4.16,1.56,0,3.08-1.16,3.08-4.4V11.72Z" transform="translate(-16.66 -3.93)"/><path d="M140,3.93V33.58h-8.59v-1.8c-1.32,1.48-3.28,2.2-6,2.2-5.72,0-10.55-4.32-10.55-11.35s4.83-11.31,10.55-11.31A7.61,7.61,0,0,1,131,13.2V3.93Zm-8.87,17.7c0-2.84-1.56-4.28-3.56-4.28s-3.55,1.44-3.55,4.28S125.62,26,127.61,26,131.17,24.47,131.17,21.63Z" transform="translate(-16.66 -3.93)"/><path class="cls-3" d="M75.26,15.45a.52.52,0,0,1-.08.28l-1.26,2.58c-.21.43-.42.86-.64,1.28a.52.52,0,0,1-.72.26.54.54,0,0,1-.29-.76c.11-.24.24-.48.35-.73.52-1,1-2.09,1.54-3.14a.6.6,0,0,1,.2-.27.51.51,0,0,1,.59,0A.57.57,0,0,1,75.26,15.45Z" transform="translate(-16.66 -3.93)"/><path class="cls-3" d="M74.7,19.87a.57.57,0,0,1-.49-.85c.17-.39.36-.78.55-1.15s.39-.79.58-1.18a.56.56,0,0,1,.53-.35.54.54,0,0,1,.55.52.87.87,0,0,1-.1.45c-.37.73-.73,1.47-1.09,2.2A.56.56,0,0,1,74.7,19.87Z" transform="translate(-16.66 -3.93)"/><path class="cls-4" d="M59.56,23.25a.73.73,0,0,1-.07.3c-.37.78-.73,1.57-1.11,2.34a.54.54,0,0,1-.8.26.51.51,0,0,1-.25-.56,1.54,1.54,0,0,1,.16-.47l1-2.07a.54.54,0,0,1,.81-.3A.56.56,0,0,1,59.56,23.25Z" transform="translate(-16.66 -3.93)"/><path class="cls-5" d="M63.42,36.08c-.23-.81-.44-1.63-.66-2.45s-.43-1.54-.63-2.31a9.67,9.67,0,0,0-.28-1,.17.17,0,0,1,0-.15,1.62,1.62,0,0,0,.1.18,5,5,0,0,0,2,2.08,4.73,4.73,0,0,0,3.31.52,4.82,4.82,0,0,0,3.55-2.8,5.27,5.27,0,0,0,.4-1.51s0-.07,0-.1l0-.56a1.87,1.87,0,0,1,.22.68c.26,1.09.58,2.16.87,3.25.22.86.47,1.72.68,2.59.11.43.22.87.36,1.31a16.5,16.5,0,0,1-3.5.87,23,23,0,0,1-6.36-.27C63.48,36.38,63.47,36.24,63.42,36.08Z" transform="translate(-16.66 -3.93)"/><path class="cls-6" d="M62.44,14.37s0,.12-.08,0c-.24-.88-.47-1.76-.7-2.64S61.18,10,61,9c-.17-.61-.33-1.22-.5-1.83a1.77,1.77,0,0,1,0-.2,10,10,0,0,1,1.77-.7,14.7,14.7,0,0,1,3.72-.62,22.21,22.21,0,0,1,3.91.14l.41.08s1.6,6,1.6,6.21c0,0-2.39-2.55-3.9-2.74a4.87,4.87,0,0,0-5,2.73A5.53,5.53,0,0,0,62.46,14C62.39,14.09,62.44,14.33,62.44,14.37Z" transform="translate(-16.66 -3.93)"/><path class="cls-7" d="M63.48,36.38a7,7,0,0,1-1-.22,20.39,20.39,0,0,1-5.17-1.87A17.3,17.3,0,0,1,54,32l-.12-.11c-.13-.13-.14-.14,0-.29L56,29.06l1.2-1.45c.15-.18.18-.21-.07-.33A1.79,1.79,0,0,1,56.19,25a26.4,26.4,0,0,1,1.29-2.75,1.46,1.46,0,0,1,.59-.59.2.2,0,0,0-.11-.15,7,7,0,0,1-2.81-5.26,9.83,9.83,0,0,1,.74-4.73,8.91,8.91,0,0,1,3.42-3.92A6.79,6.79,0,0,1,60.43,7a1.77,1.77,0,0,0,0,.2c.16.61.33,1.22.49,1.83l.72,2.72c.23.88.46,1.76.7,2.64A9.67,9.67,0,0,0,64,17.72a4.84,4.84,0,0,0,3.45,1.45,5,5,0,0,0,1.87-.35,2,2,0,0,1,1.67.05l.22.08a.58.58,0,0,0,.59-.19.92.92,0,0,0,.16-.27L73.13,16c.15-.29.3-.59.43-.89s.08-.66-.23-.83l-.18-.12a2.21,2.21,0,0,1-1-1.22c-.15-.43-.53-1.65-.58-1.82-.2-.78-.41-1.56-.62-2.34L70.59,7.5c-.12-.49-.25-1-.38-1.46a.12.12,0,0,1,0-.14,10.34,10.34,0,0,1,1.46.24,19.06,19.06,0,0,1,3.83,1.25A18.74,18.74,0,0,1,79,9.48c.2.16.2.16.06.37l-2.9,4.2c-.06.09-.09.15,0,.25a1.55,1.55,0,0,1,.34.76.29.29,0,0,0,.19.25,1.83,1.83,0,0,1,.9,2.22c-.13.35-.3.68-.46,1L76.39,20c-.1.19-.1.19.08.31a9.81,9.81,0,0,1,1.39,1.11,6.93,6.93,0,0,1,2,3.86,10.45,10.45,0,0,1-.09,4,8.53,8.53,0,0,1-3.29,5.07c-.22.16-1.08.63-1.14.67a10.07,10.07,0,0,1-1.88.81c-.14-.44-.25-.87-.36-1.31-.22-.87-.46-1.73-.69-2.59-.28-1.08-.6-2.15-.86-3.24a2.42,2.42,0,0,0-.22-.69.32.32,0,0,1,0-.09,5.06,5.06,0,0,0-.73-2.3,4.85,4.85,0,0,0-3.35-2.28,4.59,4.59,0,0,0-2.69.31,2.46,2.46,0,0,1-1.29.14,3.89,3.89,0,0,1-.65-.17.52.52,0,0,0-.66.22,2.27,2.27,0,0,0-.19.34c-.5,1.08-1,2.15-1.49,3.23a.65.65,0,0,0,.26.88c.18.12.37.23.55.36a1.57,1.57,0,0,1,.52.67c.11.29.21.59.32.88a.14.14,0,0,0,0,.15c.11.34.19.68.28,1,.2.77.42,1.53.62,2.3S63.49,36.27,63.48,36.38Z" transform="translate(-16.66 -3.93)"/><path class="cls-8" d="M75.26,15.45A.57.57,0,0,0,75,14.9a.51.51,0,0,0-.59,0,.6.6,0,0,0-.2.27c-.51,1-1,2.1-1.54,3.14-.11.25-.24.49-.35.73a.54.54,0,0,0,.29.76.52.52,0,0,0,.72-.26c.22-.42.43-.85.64-1.28l1.26-2.58A.52.52,0,0,0,75.26,15.45Z" transform="translate(-16.66 -3.93)"/><path class="cls-3" d="M58.52,27.11a.57.57,0,0,0,.38.55.53.53,0,0,0,.62-.2,1.46,1.46,0,0,0,.17-.3c.45-1,.94-2,1.41-3,.11-.24.23-.48.33-.73a.55.55,0,0,0-1-.51,1.82,1.82,0,0,0-.16.31l-.66,1.41-1,2.15A.73.73,0,0,0,58.52,27.11Z" transform="translate(-16.66 -3.93)"/><path class="cls-8" d="M74.7,19.87a.56.56,0,0,0,.53-.36c.36-.73.72-1.47,1.09-2.2a.87.87,0,0,0,.1-.45.54.54,0,0,0-.55-.52.56.56,0,0,0-.53.35c-.19.39-.38.79-.58,1.18s-.38.76-.55,1.15A.57.57,0,0,0,74.7,19.87Z" transform="translate(-16.66 -3.93)"/><path class="cls-8" d="M59.56,23.25a.56.56,0,0,0-.27-.5.54.54,0,0,0-.81.3l-1,2.07a1.54,1.54,0,0,0-.16.47.51.51,0,0,0,.25.56.54.54,0,0,0,.8-.26c.38-.77.74-1.56,1.11-2.34A.73.73,0,0,0,59.56,23.25Z" transform="translate(-16.66 -3.93)"/><path class="cls-9" d="M71.29,28.66a5.27,5.27,0,0,1-.4,1.51A4.82,4.82,0,0,1,67.34,33,4.73,4.73,0,0,1,64,32.45a5,5,0,0,1-2-2.08,1.62,1.62,0,0,1-.1-.18c-.11-.29-.21-.59-.32-.88a1.46,1.46,0,0,0-.53-.67c-.17-.13-.36-.24-.54-.36a.66.66,0,0,1-.27-.89c.5-1.07,1-2.15,1.49-3.22a1.9,1.9,0,0,1,.2-.34.51.51,0,0,1,.65-.23,3.79,3.79,0,0,0,.66.18,2.43,2.43,0,0,0,1.28-.14,4.7,4.7,0,0,1,2.69-.32,4.91,4.91,0,0,1,3.36,2.29,5.28,5.28,0,0,1,.73,2.29.36.36,0,0,0,0,.1l0,.55A.14.14,0,0,0,71.29,28.66Z" transform="translate(-16.66 -3.93)"/><path class="cls-10" d="M70.24,28.36c.05,0,0-.05,0-.07A3.91,3.91,0,0,0,69,25.36a3.65,3.65,0,0,0-3.17-1,1.57,1.57,0,0,0-.51.14A5.88,5.88,0,0,1,70.24,28.36Z" transform="translate(-16.66 -3.93)"/><path class="cls-8" d="M58.52,27.11a.73.73,0,0,1,.09-.35l1-2.15.66-1.41a1.82,1.82,0,0,1,.16-.31.55.55,0,0,1,1,.51c-.1.25-.22.49-.33.73-.47,1-1,2-1.41,3a1.46,1.46,0,0,1-.17.3.53.53,0,0,1-.62.2A.57.57,0,0,1,58.52,27.11Z" transform="translate(-16.66 -3.93)"/><path class="cls-11" d="M68.51,17.93a3.91,3.91,0,0,1-5-4A5.86,5.86,0,0,0,68.51,17.93Z" transform="translate(-16.66 -3.93)"/><path class="cls-9" d="M62.49,13.63a5.55,5.55,0,0,1,.44-1.49,4.8,4.8,0,0,1,3.6-2.73,4.71,4.71,0,0,1,3.3.59,5,5,0,0,1,2,2.12,1.62,1.62,0,0,1,.1.18l.3.89a1.57,1.57,0,0,0,.51.68c.18.14.36.25.54.37a.66.66,0,0,1,.24.89c-.51,1.07-1,2.13-1.55,3.19a2.77,2.77,0,0,1-.2.34.5.5,0,0,1-.66.21,5.31,5.31,0,0,0-.65-.19,2.47,2.47,0,0,0-1.29.12,4.62,4.62,0,0,1-2.7.25,4.84,4.84,0,0,1-3.3-2.35,5.08,5.08,0,0,1-.68-2.31l0-.1,0-.55A.11.11,0,0,0,62.49,13.63Z" transform="translate(-16.66 -3.93)"/><path class="cls-12" d="M63.54,14a.08.08,0,0,0,0,.08,3.84,3.84,0,0,0,1.21,3,3.65,3.65,0,0,0,3.15,1.07,1.82,1.82,0,0,0,.51-.13A5.9,5.9,0,0,1,63.54,14Z" transform="translate(-16.66 -3.93)"/></g></svg>