<svg id="Layer_1" data-name="Layer 1" xmlns="http://www.w3.org/2000/svg" viewBox="0 0 123.39 34.93"><defs><style>.cls-1,.cls-3,.cls-5{fill:#fccd06;}.cls-2{fill:#fff;}.cls-3,.cls-5{stroke:#fff;stroke-miterlimit:10;}.cls-3{stroke-width:0.5px;}.cls-4{fill:#fdfdff;}.cls-5{stroke-width:0.25px;}.cls-6{fill:#fcfcfc;}</style></defs><path class="cls-1" d="M16.66,29.06l5.07-6c1.48,1.84,2.88,2.76,4.44,2.76,2,0,3-1.2,3-3.48V11.72H19.69V4.6H38.52V21.79c0,7.67-4,11.43-11.55,11.43C22.61,33.22,19,31.78,16.66,29.06Z" transform="translate(-16.66 -3.53)"/><path class="cls-1" d="M57.45,20.83V32.58H49.06V29.7C48,31.9,45.94,33,42.87,33c-5.36,0-8.12-3-8.12-6.8,0-4.23,3.2-6.59,10-6.59h3.64C48.1,17.91,46.82,17,44.26,17a9.86,9.86,0,0,0-5.59,1.72L35.79,12.8a19.84,19.84,0,0,1,9.83-2.48C53.14,10.32,57.45,13.56,57.45,20.83Zm-9,4.64V24H46.18c-1.92,0-2.75.64-2.75,1.84,0,1,.79,1.75,2.15,1.75A2.86,2.86,0,0,0,48.42,25.47Z" transform="translate(-16.66 -3.53)"/><path class="cls-1" d="M92.85,11.32v8a12.41,12.41,0,0,0-2-.16c-2.72,0-4.64,1.24-4.64,4.72v9.71h-9V11.72h8.59v2.36C87.38,12.24,89.82,11.32,92.85,11.32Z" transform="translate(-16.66 -3.53)"/><path class="cls-1" d="M115.59,11.72V33.58H107V31.5A8.48,8.48,0,0,1,100.8,34c-5.23,0-9.19-3.08-9.19-10.19V11.72h9V22.23c0,3.12,1.08,4.16,2.84,4.16,1.56,0,3.08-1.16,3.08-4.4V11.72Z" transform="translate(-16.66 -3.53)"/><path class="cls-1" d="M140,3.93V33.58h-8.59v-1.8c-1.32,1.48-3.28,2.2-6,2.2-5.72,0-10.55-4.32-10.55-11.35s4.83-11.31,10.55-11.31A7.61,7.61,0,0,1,131,13.2V3.93Zm-8.87,17.7c0-2.84-1.56-4.28-3.56-4.28s-3.55,1.44-3.55,4.28S125.62,26,127.61,26,131.17,24.47,131.17,21.63Z" transform="translate(-16.66 -3.53)"/><path class="cls-1" d="M76.68,14.52a.61.61,0,0,1-.09.31c-.47,1-1,1.93-1.42,2.9l-.71,1.44a.61.61,0,0,1-.82.3.62.62,0,0,1-.32-.86l.4-.82,1.73-3.53a.63.63,0,0,1,.21-.3.61.61,0,0,1,.67-.06A.66.66,0,0,1,76.68,14.52Z" transform="translate(-16.66 -3.53)"/><path class="cls-1" d="M76.05,19.48a.63.63,0,0,1-.55-.95c.19-.44.4-.87.62-1.3s.43-.87.65-1.31a.63.63,0,0,1,.6-.4.6.6,0,0,1,.61.58,1,1,0,0,1-.11.51c-.41.82-.83,1.65-1.23,2.47A.6.6,0,0,1,76.05,19.48Z" transform="translate(-16.66 -3.53)"/><path class="cls-2" d="M59.05,23.28a.81.81,0,0,1-.08.34c-.42.88-.82,1.76-1.24,2.63a.61.61,0,0,1-.91.28.57.57,0,0,1-.28-.62,1.79,1.79,0,0,1,.19-.52c.36-.78.73-1.56,1.1-2.34a.62.62,0,0,1,.91-.33A.61.61,0,0,1,59.05,23.28Z" transform="translate(-16.66 -3.53)"/><path class="cls-3" d="M63.45,38a7.09,7.09,0,0,1-1.11-.24,22.86,22.86,0,0,1-5.81-2.11,19.84,19.84,0,0,1-3.75-2.55L52.65,33c-.15-.16-.15-.16,0-.33L55,29.81l1.34-1.63c.17-.2.21-.24-.07-.37a2,2,0,0,1-1.05-2.54,30.91,30.91,0,0,1,1.45-3.08,1.64,1.64,0,0,1,.66-.67c0-.1-.07-.13-.12-.17a7.91,7.91,0,0,1-3.15-5.9,10.84,10.84,0,0,1,.83-5.31,9.91,9.91,0,0,1,3.84-4.41A7.28,7.28,0,0,1,60,5c0,.07,0,.15,0,.23.18.68.37,1.37.55,2.06.27,1,.54,2,.8,3s.53,2,.8,3c0,.1.75,2.78,1.75,3.75a5.54,5.54,0,0,0,3.89,1.62A5.75,5.75,0,0,0,70,18.3a2.29,2.29,0,0,1,1.88.06,1.84,1.84,0,0,0,.25.09.64.64,0,0,0,.66-.21,1.83,1.83,0,0,0,.18-.3l1.36-2.76c.17-.34.34-.67.49-1s.09-.74-.26-.93l-.2-.13a2.46,2.46,0,0,1-1.13-1.37c-.18-.49-.61-1.86-.66-2.05l-.69-2.63-.39-1.47C71.29,5.05,71.15,4.5,71,4a.16.16,0,0,1,0-.16,11.58,11.58,0,0,1,1.65.27,19.91,19.91,0,0,1,8.18,3.75c.23.18.23.18.06.42L77.68,13c-.07.1-.11.17,0,.28a1.93,1.93,0,0,1,.38.85.32.32,0,0,0,.21.28,2,2,0,0,1,1,2.49A10.89,10.89,0,0,1,78.75,18l-.81,1.6c-.1.21-.1.21.1.35a10.89,10.89,0,0,1,1.56,1.24,7.78,7.78,0,0,1,2.23,4.34,11.54,11.54,0,0,1-.1,4.46A9.57,9.57,0,0,1,78,35.68c-.25.19-1.22.72-1.29.76a11.13,11.13,0,0,1-2.11.91c-.16-.49-.28-1-.4-1.47-.24-1-.52-1.94-.77-2.91-.32-1.21-.68-2.42-1-3.64a2.32,2.32,0,0,0-.25-.77.35.35,0,0,1,0-.11,5.72,5.72,0,0,0-.82-2.57,5.48,5.48,0,0,0-3.77-2.57,5.23,5.23,0,0,0-3,.35,2.71,2.71,0,0,1-1.44.16,4.61,4.61,0,0,1-.73-.19.57.57,0,0,0-.74.25c-.08.12-.15.25-.22.38l-1.67,3.62a.73.73,0,0,0,.3,1c.2.14.41.26.61.41a1.68,1.68,0,0,1,.59.75l.36,1a.15.15,0,0,0,0,.17c.13.38.22.76.32,1.15.22.86.46,1.72.7,2.59S63.46,37.9,63.45,38Z" transform="translate(-16.66 -3.53)"/><path class="cls-4" d="M76.68,14.52a.66.66,0,0,0-.35-.62.61.61,0,0,0-.67.06.63.63,0,0,0-.21.3l-1.73,3.53-.4.82a.62.62,0,0,0,.32.86.61.61,0,0,0,.82-.3l.71-1.44c.47-1,1-1.93,1.42-2.9A.61.61,0,0,0,76.68,14.52Z" transform="translate(-16.66 -3.53)"/><path class="cls-1" d="M57.88,27.62a.64.64,0,0,0,.42.61A.59.59,0,0,0,59,28a1.57,1.57,0,0,0,.19-.33c.5-1.15,1.05-2.27,1.59-3.41.13-.27.26-.54.37-.82a.63.63,0,0,0-.29-.81.64.64,0,0,0-.82.24,2.16,2.16,0,0,0-.17.34l-.75,1.59L58,27.22A1,1,0,0,0,57.88,27.62Z" transform="translate(-16.66 -3.53)"/><path class="cls-4" d="M76.05,19.48a.6.6,0,0,0,.59-.4c.4-.82.82-1.65,1.23-2.47A1,1,0,0,0,78,16.1a.6.6,0,0,0-.61-.58.63.63,0,0,0-.6.4c-.22.44-.42.88-.65,1.31s-.43.86-.62,1.3A.63.63,0,0,0,76.05,19.48Z" transform="translate(-16.66 -3.53)"/><path class="cls-4" d="M59.05,23.28a.61.61,0,0,0-.31-.56.62.62,0,0,0-.91.33c-.37.78-.74,1.56-1.1,2.34a1.79,1.79,0,0,0-.19.52.57.57,0,0,0,.28.62.61.61,0,0,0,.91-.28c.42-.87.82-1.75,1.24-2.63A.81.81,0,0,0,59.05,23.28Z" transform="translate(-16.66 -3.53)"/><path class="cls-2" d="M63.39,37.69c-.26-.92-.5-1.84-.75-2.76s-.48-1.72-.7-2.58c-.1-.39-.19-.78-.32-1.15a.17.17,0,0,1,0-.17,2.12,2.12,0,0,1,.11.21,5.71,5.71,0,0,0,2.29,2.33A5.52,5.52,0,0,0,71.74,31a5.81,5.81,0,0,0,.46-1.69s0-.07,0-.12l0-.62a2.11,2.11,0,0,1,.25.77c.29,1.22.65,2.42,1,3.64.26,1,.53,1.93.77,2.91.13.49.25,1,.4,1.47a18,18,0,0,1-3.93,1A25.9,25.9,0,0,1,63.55,38C63.45,38,63.44,37.86,63.39,37.69Z" transform="translate(-16.66 -3.53)"/><path class="cls-2" d="M62.28,13.31s-.06.13-.08,0c-.27-1-.54-2-.8-3s-.53-2-.8-3.05c-.18-.69-.37-1.38-.55-2.06,0-.08,0-.16,0-.23a11.74,11.74,0,0,1,2-.78,16.47,16.47,0,0,1,4.18-.7,25.79,25.79,0,0,1,4.39.16l.46.09s1.8,6.76,1.8,7c0,0-2.69-2.86-4.38-3.07a5.47,5.47,0,0,0-5.56,3.06,6.48,6.48,0,0,0-.58,2.15C62.23,13,62.29,13.26,62.28,13.31Z" transform="translate(-16.66 -3.53)"/><path class="cls-5" d="M72.22,29.36a5.87,5.87,0,0,1-.45,1.69,5.41,5.41,0,0,1-4,3.15,5.31,5.31,0,0,1-3.72-.59,5.63,5.63,0,0,1-2.28-2.33l-.12-.21c-.12-.33-.23-.66-.36-1a1.67,1.67,0,0,0-.59-.75c-.19-.15-.4-.27-.61-.41a.73.73,0,0,1-.29-1l1.67-3.62a2.08,2.08,0,0,1,.22-.38.56.56,0,0,1,.73-.25,6.21,6.21,0,0,0,.74.2,2.74,2.74,0,0,0,1.44-.17,5.3,5.3,0,0,1,3-.35,5.48,5.48,0,0,1,3.77,2.57,5.85,5.85,0,0,1,.82,2.57.2.2,0,0,0,0,.11l0,.63A.16.16,0,0,0,72.22,29.36ZM71,29a.07.07,0,0,0,0-.08,4.34,4.34,0,0,0-1.43-3.29,4.12,4.12,0,0,0-3.57-1.12,1.72,1.72,0,0,0-.56.16A6.6,6.6,0,0,1,71,29Z" transform="translate(-16.66 -3.53)"/><path class="cls-4" d="M57.88,27.62a1,1,0,0,1,.1-.4l1.14-2.41.75-1.59a2.16,2.16,0,0,1,.17-.34.64.64,0,0,1,.82-.24.63.63,0,0,1,.29.81c-.11.28-.24.55-.37.82-.54,1.14-1.09,2.26-1.59,3.41A1.57,1.57,0,0,1,59,28a.59.59,0,0,1-.7.22A.64.64,0,0,1,57.88,27.62Z" transform="translate(-16.66 -3.53)"/><path class="cls-6" d="M69.09,17.31c-2.43.93-5.77-1.23-5.57-4.47A6.58,6.58,0,0,0,69.09,17.31Z" transform="translate(-16.66 -3.53)"/><path class="cls-6" d="M71,29a6.61,6.61,0,0,0-5.51-4.34,2.29,2.29,0,0,1,.56-.16,4.13,4.13,0,0,1,3.56,1.13,4.34,4.34,0,0,1,1.43,3.29S71.09,28.94,71,29Z" transform="translate(-16.66 -3.53)"/><path class="cls-5" d="M62.34,12.48a5.81,5.81,0,0,1,.5-1.68,5.34,5.34,0,0,1,4-3.06,5.27,5.27,0,0,1,3.7.66,5.59,5.59,0,0,1,2.24,2.38,1.28,1.28,0,0,0,.11.2c.11.34.22.67.34,1a1.68,1.68,0,0,0,.57.77c.19.15.4.28.6.42a.72.72,0,0,1,.28,1c-.58,1.2-1.17,2.39-1.75,3.59a2.88,2.88,0,0,1-.22.38.59.59,0,0,1-.75.23,4.38,4.38,0,0,0-.73-.21,2.83,2.83,0,0,0-1.44.13,5.16,5.16,0,0,1-3,.29,5.48,5.48,0,0,1-3.71-2.64,5.78,5.78,0,0,1-.77-2.59.5.5,0,0,0,0-.12l0-.62A.13.13,0,0,0,62.34,12.48Zm1.18.36a.07.07,0,0,0,0,.08,4.34,4.34,0,0,0,1.36,3.32,4.12,4.12,0,0,0,3.54,1.2,1.73,1.73,0,0,0,.57-.15A6.59,6.59,0,0,1,63.52,12.84Z" transform="translate(-16.66 -3.53)"/></svg>