<svg xmlns="http://www.w3.org/2000/svg" xmlns:xlink="http://www.w3.org/1999/xlink" width="150" zoomAndPan="magnify" viewBox="0 0 112.5 30.000001" height="40" preserveAspectRatio="xMidYMid meet" version="1.0"><defs><g/><clipPath id="f0b0812cd9"><path d="M 36 2.613281 L 55.765625 2.613281 L 55.765625 26 L 36 26 Z M 36 2.613281 " clip-rule="nonzero"/></clipPath><clipPath id="873bbdd495"><path d="M 41 2.613281 L 50 2.613281 L 50 10 L 41 10 Z M 41 2.613281 " clip-rule="nonzero"/></clipPath><clipPath id="f833e1d1c7"><rect x="0" width="42" y="0" height="5"/></clipPath></defs><g fill="#000000" fill-opacity="0.4"><g transform="translate(10.983782, 21.733545)"><g><path d="M 6.75 0.46875 C 5.175781 0.46875 3.75 0.210938 2.46875 -0.296875 C 1.1875 -0.804688 0.132812 -1.550781 -0.6875 -2.53125 L 2.96875 -6.859375 C 3.507812 -6.191406 4.039062 -5.691406 4.5625 -5.359375 C 5.082031 -5.035156 5.617188 -4.875 6.171875 -4.875 C 6.878906 -4.875 7.421875 -5.082031 7.796875 -5.5 C 8.171875 -5.925781 8.359375 -6.554688 8.359375 -7.390625 L 8.359375 -15.0625 L 1.5 -15.0625 L 1.5 -20.1875 L 15.078125 -20.1875 L 15.078125 -7.78125 C 15.078125 -5.03125 14.367188 -2.96875 12.953125 -1.59375 C 11.546875 -0.21875 9.476562 0.46875 6.75 0.46875 Z M 6.75 0.46875 "/></g></g></g><g fill="#000000" fill-opacity="0.4"><g transform="translate(24.312745, 21.733545)"><g><path d="M 8.515625 -16.0625 C 11.273438 -16.0625 13.382812 -15.441406 14.84375 -14.203125 C 16.3125 -12.960938 17.046875 -11.054688 17.046875 -8.484375 L 17.046875 0 L 10.984375 0 L 10.984375 -2.078125 C 10.234375 -0.503906 8.742188 0.28125 6.515625 0.28125 C 5.265625 0.28125 4.203125 0.0664062 3.328125 -0.359375 C 2.453125 -0.796875 1.785156 -1.382812 1.328125 -2.125 C 0.878906 -2.863281 0.65625 -3.691406 0.65625 -4.609375 C 0.65625 -6.171875 1.25 -7.351562 2.4375 -8.15625 C 3.632812 -8.96875 5.445312 -9.375 7.875 -9.375 L 10.5 -9.375 C 10.289062 -10.601562 9.300781 -11.21875 7.53125 -11.21875 C 6.820312 -11.21875 6.097656 -11.109375 5.359375 -10.890625 C 4.628906 -10.671875 4.003906 -10.367188 3.484375 -9.984375 L 1.40625 -14.28125 C 2.3125 -14.832031 3.40625 -15.265625 4.6875 -15.578125 C 5.96875 -15.898438 7.242188 -16.0625 8.515625 -16.0625 Z M 8.484375 -3.640625 C 8.941406 -3.640625 9.351562 -3.765625 9.71875 -4.015625 C 10.082031 -4.265625 10.351562 -4.640625 10.53125 -5.140625 L 10.53125 -6.234375 L 8.90625 -6.234375 C 7.582031 -6.234375 6.921875 -5.789062 6.921875 -4.90625 C 6.921875 -4.539062 7.0625 -4.238281 7.34375 -4 C 7.625 -3.757812 8.003906 -3.640625 8.484375 -3.640625 Z M 8.484375 -3.640625 "/></g></g></g><g fill="#000000" fill-opacity="0.4"><g transform="translate(39.517048, 21.733545)"><g/></g></g><g fill="#000000" fill-opacity="0.4"><g transform="translate(44.940872, 21.733545)"><g/></g></g><g fill="#000000" fill-opacity="0.4"><g transform="translate(50.370122, 21.733545)"><g><path d="M 18.6875 -15.78125 L 18.6875 0 L 12.484375 0 L 12.484375 -1.5 C 11.910156 -0.90625 11.238281 -0.457031 10.46875 -0.15625 C 9.695312 0.132812 8.878906 0.28125 8.015625 0.28125 C 6.015625 0.28125 4.410156 -0.328125 3.203125 -1.546875 C 1.992188 -2.765625 1.390625 -4.601562 1.390625 -7.0625 L 1.390625 -15.78125 L 7.90625 -15.78125 L 7.90625 -8.1875 C 7.90625 -7.113281 8.078125 -6.34375 8.421875 -5.875 C 8.765625 -5.414062 9.273438 -5.1875 9.953125 -5.1875 C 10.585938 -5.1875 11.113281 -5.441406 11.53125 -5.953125 C 11.957031 -6.460938 12.171875 -7.265625 12.171875 -8.359375 L 12.171875 -15.78125 Z M 18.6875 -15.78125 "/></g></g></g><g fill="#000000" fill-opacity="0.4"><g transform="translate(67.276597, 21.733545)"><g><path d="M 7.640625 -14.078125 C 8.796875 -15.398438 10.5 -16.0625 12.75 -16.0625 L 12.75 -10.296875 C 12.226562 -10.367188 11.75 -10.40625 11.3125 -10.40625 C 9.070312 -10.40625 7.953125 -9.273438 7.953125 -7.015625 L 7.953125 0 L 1.4375 0 L 1.4375 -15.78125 L 7.640625 -15.78125 Z M 7.640625 -14.078125 "/></g></g></g><g fill="#000000" fill-opacity="0.4"><g transform="translate(77.20116, 21.733545)"><g><path d="M 18.890625 -21.40625 L 18.890625 0 L 12.6875 0 L 12.6875 -1.296875 C 11.75 -0.242188 10.304688 0.28125 8.359375 0.28125 C 6.972656 0.28125 5.695312 -0.046875 4.53125 -0.703125 C 3.375 -1.367188 2.453125 -2.328125 1.765625 -3.578125 C 1.085938 -4.828125 0.75 -6.269531 0.75 -7.90625 C 0.75 -9.539062 1.085938 -10.976562 1.765625 -12.21875 C 2.453125 -13.457031 3.375 -14.40625 4.53125 -15.0625 C 5.695312 -15.726562 6.972656 -16.0625 8.359375 -16.0625 C 10.109375 -16.0625 11.445312 -15.609375 12.375 -14.703125 L 12.375 -21.40625 Z M 9.921875 -4.78125 C 10.671875 -4.78125 11.285156 -5.054688 11.765625 -5.609375 C 12.242188 -6.160156 12.484375 -6.925781 12.484375 -7.90625 C 12.484375 -8.882812 12.242188 -9.640625 11.765625 -10.171875 C 11.285156 -10.710938 10.671875 -10.984375 9.921875 -10.984375 C 9.171875 -10.984375 8.554688 -10.710938 8.078125 -10.171875 C 7.597656 -9.640625 7.359375 -8.882812 7.359375 -7.90625 C 7.359375 -6.925781 7.597656 -6.160156 8.078125 -5.609375 C 8.554688 -5.054688 9.171875 -4.78125 9.921875 -4.78125 Z M 9.921875 -4.78125 "/></g></g></g><g fill="#020202" fill-opacity="1"><g transform="translate(10.983782, 21.733545)"><g><path d="M 6.75 0.46875 C 5.175781 0.46875 3.75 0.210938 2.46875 -0.296875 C 1.1875 -0.804688 0.132812 -1.550781 -0.6875 -2.53125 L 2.96875 -6.859375 C 3.507812 -6.191406 4.039062 -5.691406 4.5625 -5.359375 C 5.082031 -5.035156 5.617188 -4.875 6.171875 -4.875 C 6.878906 -4.875 7.421875 -5.082031 7.796875 -5.5 C 8.171875 -5.925781 8.359375 -6.554688 8.359375 -7.390625 L 8.359375 -15.0625 L 1.5 -15.0625 L 1.5 -20.1875 L 15.078125 -20.1875 L 15.078125 -7.78125 C 15.078125 -5.03125 14.367188 -2.96875 12.953125 -1.59375 C 11.546875 -0.21875 9.476562 0.46875 6.75 0.46875 Z M 6.75 0.46875 "/></g></g></g><g fill="#020202" fill-opacity="1"><g transform="translate(24.312745, 21.733545)"><g><path d="M 8.515625 -16.0625 C 11.273438 -16.0625 13.382812 -15.441406 14.84375 -14.203125 C 16.3125 -12.960938 17.046875 -11.054688 17.046875 -8.484375 L 17.046875 0 L 10.984375 0 L 10.984375 -2.078125 C 10.234375 -0.503906 8.742188 0.28125 6.515625 0.28125 C 5.265625 0.28125 4.203125 0.0664062 3.328125 -0.359375 C 2.453125 -0.796875 1.785156 -1.382812 1.328125 -2.125 C 0.878906 -2.863281 0.65625 -3.691406 0.65625 -4.609375 C 0.65625 -6.171875 1.25 -7.351562 2.4375 -8.15625 C 3.632812 -8.96875 5.445312 -9.375 7.875 -9.375 L 10.5 -9.375 C 10.289062 -10.601562 9.300781 -11.21875 7.53125 -11.21875 C 6.820312 -11.21875 6.097656 -11.109375 5.359375 -10.890625 C 4.628906 -10.671875 4.003906 -10.367188 3.484375 -9.984375 L 1.40625 -14.28125 C 2.3125 -14.832031 3.40625 -15.265625 4.6875 -15.578125 C 5.96875 -15.898438 7.242188 -16.0625 8.515625 -16.0625 Z M 8.484375 -3.640625 C 8.941406 -3.640625 9.351562 -3.765625 9.71875 -4.015625 C 10.082031 -4.265625 10.351562 -4.640625 10.53125 -5.140625 L 10.53125 -6.234375 L 8.90625 -6.234375 C 7.582031 -6.234375 6.921875 -5.789062 6.921875 -4.90625 C 6.921875 -4.539062 7.0625 -4.238281 7.34375 -4 C 7.625 -3.757812 8.003906 -3.640625 8.484375 -3.640625 Z M 8.484375 -3.640625 "/></g></g></g><g fill="#020202" fill-opacity="1"><g transform="translate(39.517048, 21.733545)"><g/></g></g><g fill="#020202" fill-opacity="1"><g transform="translate(44.940872, 21.733545)"><g/></g></g><g fill="#020202" fill-opacity="1"><g transform="translate(50.370122, 21.733545)"><g><path d="M 18.6875 -15.78125 L 18.6875 0 L 12.484375 0 L 12.484375 -1.5 C 11.910156 -0.90625 11.238281 -0.457031 10.46875 -0.15625 C 9.695312 0.132812 8.878906 0.28125 8.015625 0.28125 C 6.015625 0.28125 4.410156 -0.328125 3.203125 -1.546875 C 1.992188 -2.765625 1.390625 -4.601562 1.390625 -7.0625 L 1.390625 -15.78125 L 7.90625 -15.78125 L 7.90625 -8.1875 C 7.90625 -7.113281 8.078125 -6.34375 8.421875 -5.875 C 8.765625 -5.414062 9.273438 -5.1875 9.953125 -5.1875 C 10.585938 -5.1875 11.113281 -5.441406 11.53125 -5.953125 C 11.957031 -6.460938 12.171875 -7.265625 12.171875 -8.359375 L 12.171875 -15.78125 Z M 18.6875 -15.78125 "/></g></g></g><g fill="#020202" fill-opacity="1"><g transform="translate(67.276597, 21.733545)"><g><path d="M 7.640625 -14.078125 C 8.796875 -15.398438 10.5 -16.0625 12.75 -16.0625 L 12.75 -10.296875 C 12.226562 -10.367188 11.75 -10.40625 11.3125 -10.40625 C 9.070312 -10.40625 7.953125 -9.273438 7.953125 -7.015625 L 7.953125 0 L 1.4375 0 L 1.4375 -15.78125 L 7.640625 -15.78125 Z M 7.640625 -14.078125 "/></g></g></g><g fill="#020202" fill-opacity="1"><g transform="translate(77.20116, 21.733545)"><g><path d="M 18.890625 -21.40625 L 18.890625 0 L 12.6875 0 L 12.6875 -1.296875 C 11.75 -0.242188 10.304688 0.28125 8.359375 0.28125 C 6.972656 0.28125 5.695312 -0.046875 4.53125 -0.703125 C 3.375 -1.367188 2.453125 -2.328125 1.765625 -3.578125 C 1.085938 -4.828125 0.75 -6.269531 0.75 -7.90625 C 0.75 -9.539062 1.085938 -10.976562 1.765625 -12.21875 C 2.453125 -13.457031 3.375 -14.40625 4.53125 -15.0625 C 5.695312 -15.726562 6.972656 -16.0625 8.359375 -16.0625 C 10.109375 -16.0625 11.445312 -15.609375 12.375 -14.703125 L 12.375 -21.40625 Z M 9.921875 -4.78125 C 10.671875 -4.78125 11.285156 -5.054688 11.765625 -5.609375 C 12.242188 -6.160156 12.484375 -6.925781 12.484375 -7.90625 C 12.484375 -8.882812 12.242188 -9.640625 11.765625 -10.171875 C 11.285156 -10.710938 10.671875 -10.984375 9.921875 -10.984375 C 9.171875 -10.984375 8.554688 -10.710938 8.078125 -10.171875 C 7.597656 -9.640625 7.359375 -8.882812 7.359375 -7.90625 C 7.359375 -6.925781 7.597656 -6.160156 8.078125 -5.609375 C 8.554688 -5.054688 9.171875 -4.78125 9.921875 -4.78125 Z M 9.921875 -4.78125 "/></g></g></g><path fill="#fccd06" d="M 52.210938 10.011719 C 52.214844 10.078125 52.1875 10.148438 52.152344 10.222656 L 51.199219 12.167969 C 51.042969 12.492188 50.886719 12.820312 50.722656 13.140625 C 50.613281 13.359375 50.398438 13.433594 50.179688 13.339844 C 49.949219 13.238281 49.859375 13.003906 49.96875 12.765625 C 50.050781 12.578125 50.140625 12.394531 50.230469 12.210938 C 50.613281 11.421875 51 10.628906 51.382812 9.839844 C 51.421875 9.761719 51.457031 9.683594 51.53125 9.632812 C 51.671875 9.53125 51.816406 9.511719 51.972656 9.59375 C 52.128906 9.679688 52.207031 9.816406 52.210938 10.011719 Z M 52.210938 10.011719 " fill-opacity="1" fill-rule="nonzero"/><path fill="#fccd06" d="M 51.789062 13.347656 C 51.457031 13.339844 51.277344 13.035156 51.417969 12.707031 C 51.550781 12.414062 51.6875 12.121094 51.835938 11.835938 C 51.988281 11.542969 52.125 11.246094 52.265625 10.949219 C 52.347656 10.78125 52.476562 10.683594 52.667969 10.683594 C 52.902344 10.6875 53.0625 10.839844 53.078125 11.074219 C 53.085938 11.195312 53.058594 11.308594 53.003906 11.414062 C 52.726562 11.96875 52.453125 12.523438 52.183594 13.078125 C 52.101562 13.246094 51.984375 13.351562 51.789062 13.347656 Z M 51.789062 13.347656 " fill-opacity="1" fill-rule="nonzero"/><path fill="#ffffff" d="M 40.421875 15.902344 C 40.421875 15.984375 40.40625 16.058594 40.371094 16.132812 C 40.09375 16.71875 39.820312 17.3125 39.542969 17.898438 C 39.421875 18.152344 39.167969 18.226562 38.9375 18.089844 C 38.78125 17.996094 38.71875 17.847656 38.746094 17.671875 C 38.765625 17.542969 38.820312 17.429688 38.871094 17.320312 C 39.117188 16.792969 39.363281 16.273438 39.613281 15.75 C 39.742188 15.476562 39.984375 15.382812 40.222656 15.523438 C 40.367188 15.605469 40.417969 15.742188 40.421875 15.902344 Z M 40.421875 15.902344 " fill-opacity="1" fill-rule="nonzero"/><g clip-path="url(#f0b0812cd9)"><path fill="#fccd06" d="M 43.242188 25.769531 C 43.03125 25.765625 42.828125 25.695312 42.625 25.648438 C 41.273438 25.347656 39.96875 24.894531 38.742188 24.234375 C 37.84375 23.753906 37 23.195312 36.234375 22.515625 C 36.203125 22.492188 36.175781 22.464844 36.148438 22.4375 C 36.046875 22.332031 36.042969 22.332031 36.140625 22.214844 C 36.675781 21.574219 37.207031 20.933594 37.742188 20.292969 C 38.042969 19.929688 38.34375 19.5625 38.644531 19.195312 C 38.753906 19.058594 38.78125 19.03125 38.59375 18.949219 C 38.074219 18.71875 37.59375 18.003906 37.894531 17.238281 C 38.171875 16.527344 38.503906 15.839844 38.859375 15.164062 C 38.964844 14.972656 39.113281 14.820312 39.304688 14.714844 C 39.300781 14.648438 39.253906 14.628906 39.21875 14.601562 C 37.917969 13.597656 37.25 12.257812 37.117188 10.632812 C 37.015625 9.398438 37.179688 8.203125 37.671875 7.0625 C 38.214844 5.804688 39.101562 4.839844 40.238281 4.097656 C 40.503906 3.921875 40.777344 3.746094 41.074219 3.628906 C 41.085938 3.679688 41.09375 3.730469 41.109375 3.78125 C 41.230469 4.242188 41.355469 4.703125 41.480469 5.164062 C 41.65625 5.847656 41.835938 6.535156 42.011719 7.21875 C 42.1875 7.882812 42.363281 8.546875 42.542969 9.210938 C 42.5625 9.277344 42.582031 9.195312 42.601562 9.191406 C 42.609375 9.242188 42.617188 9.296875 42.621094 9.347656 C 42.707031 10.273438 43.050781 11.078125 43.71875 11.730469 C 44.441406 12.433594 45.300781 12.808594 46.3125 12.820312 C 46.796875 12.820312 47.261719 12.734375 47.710938 12.554688 C 48.136719 12.390625 48.554688 12.394531 48.96875 12.589844 C 49.023438 12.617188 49.078125 12.636719 49.136719 12.652344 C 49.308594 12.695312 49.457031 12.648438 49.578125 12.511719 C 49.625 12.449219 49.664062 12.382812 49.699219 12.308594 C 50 11.691406 50.304688 11.070312 50.609375 10.453125 C 50.71875 10.226562 50.835938 10.003906 50.933594 9.777344 C 51.0625 9.476562 50.992188 9.28125 50.761719 9.148438 C 50.714844 9.121094 50.675781 9.089844 50.628906 9.0625 C 50.253906 8.855469 50.015625 8.53125 49.871094 8.140625 C 49.753906 7.8125 49.632812 7.484375 49.46875 7.179688 L 49.492188 7.175781 L 49.515625 7.191406 L 49.503906 7.164062 C 49.503906 7.027344 49.46875 6.894531 49.433594 6.761719 C 49.28125 6.171875 49.121094 5.582031 48.96875 4.996094 C 48.878906 4.667969 48.792969 4.335938 48.707031 4.007812 C 48.609375 3.640625 48.515625 3.273438 48.417969 2.910156 C 48.402344 2.867188 48.410156 2.832031 48.441406 2.800781 C 48.8125 2.824219 49.175781 2.90625 49.542969 2.984375 C 51.558594 3.398438 53.382812 4.242188 55.011719 5.507812 C 55.164062 5.625 55.164062 5.625 55.054688 5.785156 C 54.328125 6.84375 53.601562 7.898438 52.878906 8.953125 C 52.832031 9.023438 52.808594 9.070312 52.871094 9.144531 C 53.007812 9.3125 53.09375 9.5 53.125 9.714844 C 53.140625 9.804688 53.175781 9.863281 53.265625 9.90625 C 53.960938 10.230469 54.132812 11.066406 53.941406 11.578125 C 53.839844 11.84375 53.722656 12.101562 53.59375 12.351562 C 53.414062 12.710938 53.234375 13.070312 53.054688 13.429688 C 52.984375 13.570312 52.984375 13.574219 53.117188 13.660156 C 53.492188 13.90625 53.839844 14.183594 54.160156 14.496094 C 54.976562 15.304688 55.460938 16.289062 55.65625 17.414062 C 55.828125 18.421875 55.804688 19.421875 55.585938 20.417969 C 55.242188 22.003906 54.394531 23.261719 53.121094 24.246094 C 52.953125 24.371094 52.78125 24.488281 52.609375 24.609375 C 52.550781 24.652344 52.492188 24.699219 52.417969 24.710938 C 52.351562 24.671875 52.304688 24.726562 52.261719 24.753906 C 51.90625 24.972656 51.53125 25.132812 51.148438 25.285156 C 51.054688 25.324219 50.960938 25.367188 50.847656 25.367188 C 50.742188 25.035156 50.664062 24.707031 50.582031 24.378906 C 50.417969 23.722656 50.234375 23.074219 50.066406 22.421875 C 49.851562 21.601562 49.609375 20.792969 49.414062 19.96875 C 49.375 19.796875 49.351562 19.609375 49.25 19.453125 C 49.242188 19.429688 49.234375 19.40625 49.230469 19.378906 C 49.175781 18.761719 49.011719 18.179688 48.683594 17.648438 C 48.09375 16.703125 47.25 16.132812 46.164062 15.925781 C 45.472656 15.789062 44.796875 15.886719 44.144531 16.160156 C 43.835938 16.289062 43.511719 16.3125 43.183594 16.269531 C 43.011719 16.246094 42.851562 16.1875 42.691406 16.136719 C 42.472656 16.066406 42.328125 16.117188 42.199219 16.304688 C 42.144531 16.386719 42.09375 16.472656 42.054688 16.5625 C 41.679688 17.371094 41.304688 18.183594 40.933594 18.996094 C 40.8125 19.261719 40.886719 19.5 41.132812 19.664062 C 41.269531 19.753906 41.410156 19.835938 41.539062 19.933594 C 41.722656 20.066406 41.851562 20.234375 41.933594 20.445312 C 42.019531 20.664062 42.09375 20.886719 42.175781 21.109375 C 42.144531 21.144531 42.140625 21.179688 42.15625 21.21875 C 42.242188 21.476562 42.300781 21.734375 42.367188 21.996094 C 42.515625 22.578125 42.679688 23.15625 42.835938 23.734375 C 43.003906 24.351562 43.160156 24.972656 43.335938 25.589844 C 43.371094 25.703125 43.328125 25.738281 43.242188 25.769531 Z M 43.242188 25.769531 " fill-opacity="1" fill-rule="nonzero"/></g><path fill="#ffffff" d="M 52.210938 10.011719 C 52.207031 9.816406 52.132812 9.679688 51.972656 9.59375 C 51.816406 9.507812 51.671875 9.53125 51.53125 9.632812 C 51.457031 9.683594 51.421875 9.761719 51.386719 9.835938 C 51 10.628906 50.617188 11.421875 50.230469 12.210938 C 50.140625 12.394531 50.050781 12.578125 49.96875 12.761719 C 49.859375 13.003906 49.949219 13.234375 50.179688 13.335938 C 50.398438 13.433594 50.617188 13.359375 50.722656 13.140625 C 50.886719 12.816406 51.042969 12.492188 51.203125 12.167969 L 52.152344 10.21875 C 52.1875 10.148438 52.214844 10.078125 52.210938 10.011719 Z M 52.210938 10.011719 " fill-opacity="1" fill-rule="nonzero"/><path fill="#fccd06" d="M 39.644531 18.820312 C 39.648438 19.015625 39.753906 19.164062 39.925781 19.230469 C 40.101562 19.292969 40.265625 19.242188 40.394531 19.078125 C 40.445312 19.011719 40.488281 18.9375 40.519531 18.855469 C 40.855469 18.085938 41.222656 17.332031 41.578125 16.570312 C 41.664062 16.386719 41.753906 16.203125 41.832031 16.011719 C 41.875 15.910156 41.878906 15.808594 41.839844 15.703125 C 41.804688 15.601562 41.734375 15.523438 41.636719 15.472656 C 41.449219 15.375 41.214844 15.441406 41.089844 15.632812 C 41.046875 15.707031 41.007812 15.78125 40.972656 15.859375 C 40.804688 16.21875 40.640625 16.574219 40.472656 16.929688 C 40.21875 17.472656 39.964844 18.011719 39.710938 18.554688 C 39.667969 18.636719 39.648438 18.726562 39.644531 18.820312 Z M 39.644531 18.820312 " fill-opacity="1" fill-rule="nonzero"/><path fill="#ffffff" d="M 51.789062 13.347656 C 51.984375 13.351562 52.101562 13.246094 52.183594 13.078125 C 52.453125 12.523438 52.726562 11.96875 53.003906 11.414062 C 53.058594 11.308594 53.085938 11.195312 53.078125 11.074219 C 53.0625 10.839844 52.898438 10.6875 52.667969 10.683594 C 52.476562 10.683594 52.347656 10.78125 52.265625 10.949219 C 52.125 11.246094 51.984375 11.542969 51.835938 11.835938 C 51.6875 12.121094 51.550781 12.414062 51.417969 12.707031 C 51.277344 13.035156 51.457031 13.34375 51.789062 13.347656 Z M 51.789062 13.347656 " fill-opacity="1" fill-rule="nonzero"/><path fill="#ffffff" d="M 40.421875 15.902344 C 40.417969 15.742188 40.367188 15.605469 40.222656 15.523438 C 39.984375 15.382812 39.742188 15.476562 39.613281 15.75 C 39.367188 16.273438 39.121094 16.796875 38.871094 17.316406 C 38.820312 17.429688 38.765625 17.542969 38.746094 17.667969 C 38.71875 17.847656 38.78125 17.996094 38.9375 18.089844 C 39.167969 18.226562 39.421875 18.152344 39.542969 17.898438 C 39.820312 17.3125 40.09375 16.71875 40.371094 16.132812 C 40.40625 16.058594 40.421875 15.984375 40.421875 15.902344 Z M 40.421875 15.902344 " fill-opacity="1" fill-rule="nonzero"/><path fill="#fcfcfc" d="M 43.242188 25.769531 C 43.328125 25.738281 43.371094 25.703125 43.335938 25.585938 C 43.160156 24.972656 43 24.351562 42.835938 23.734375 C 42.679688 23.152344 42.515625 22.574219 42.367188 21.996094 C 42.300781 21.734375 42.242188 21.472656 42.15625 21.21875 C 42.140625 21.179688 42.144531 21.140625 42.171875 21.109375 C 42.199219 21.15625 42.226562 21.199219 42.25 21.246094 C 42.613281 21.914062 43.109375 22.449219 43.777344 22.816406 C 44.558594 23.242188 45.390625 23.390625 46.261719 23.207031 C 47.496094 22.949219 48.386719 22.242188 48.921875 21.089844 C 49.089844 20.730469 49.171875 20.34375 49.226562 19.953125 C 49.261719 19.929688 49.261719 19.902344 49.234375 19.875 L 49.25 19.457031 C 49.351562 19.613281 49.371094 19.796875 49.414062 19.972656 C 49.609375 20.792969 49.847656 21.601562 50.0625 22.421875 C 50.234375 23.074219 50.414062 23.722656 50.578125 24.378906 C 50.660156 24.707031 50.742188 25.039062 50.847656 25.371094 C 50.957031 25.371094 49.296875 25.910156 48.21875 26.023438 C 46.621094 26.191406 45.027344 26.105469 43.445312 25.828125 C 43.375 25.816406 43.308594 25.796875 43.242188 25.769531 Z M 43.242188 25.769531 " fill-opacity="1" fill-rule="nonzero"/><g clip-path="url(#873bbdd495)"><path fill="#fcfcfc" d="M 42.601562 9.191406 C 42.578125 9.195312 42.5625 9.277344 42.542969 9.210938 C 42.359375 8.546875 42.183594 7.882812 42.011719 7.21875 C 41.832031 6.535156 41.65625 5.847656 41.476562 5.164062 C 41.355469 4.703125 41.230469 4.242188 41.105469 3.78125 C 41.09375 3.730469 41.082031 3.679688 41.074219 3.628906 C 41.496094 3.402344 41.945312 3.246094 42.402344 3.101562 C 43.308594 2.8125 44.246094 2.679688 45.195312 2.632812 C 46.175781 2.589844 47.15625 2.609375 48.128906 2.742188 C 48.230469 2.757812 48.335938 2.78125 48.4375 2.800781 C 48.410156 2.832031 48.402344 2.867188 48.414062 2.910156 C 48.511719 3.273438 48.609375 3.640625 48.703125 4.007812 C 48.792969 4.335938 48.878906 4.667969 48.964844 4.996094 C 49.121094 5.582031 49.277344 6.171875 49.429688 6.757812 C 49.464844 6.890625 49.5 7.027344 49.5 7.164062 L 49.492188 7.175781 L 49.464844 7.179688 C 49.4375 7.136719 49.40625 7.09375 49.375 7.050781 C 48.722656 6.117188 47.847656 5.558594 46.714844 5.421875 C 45.179688 5.230469 43.652344 6.078125 42.996094 7.484375 C 42.78125 7.941406 42.652344 8.417969 42.609375 8.921875 C 42.5625 8.976562 42.566406 9.035156 42.601562 9.09375 Z M 42.601562 9.191406 " fill-opacity="1" fill-rule="nonzero"/></g><path fill="#fcfcfa" d="M 42.601562 9.191406 L 42.601562 9.09375 C 42.621094 9.039062 42.625 8.980469 42.609375 8.925781 C 42.65625 8.421875 42.78125 7.941406 42.996094 7.484375 C 43.652344 6.078125 45.179688 5.234375 46.714844 5.421875 C 47.847656 5.5625 48.722656 6.121094 49.375 7.050781 C 49.402344 7.09375 49.4375 7.136719 49.464844 7.179688 C 49.632812 7.484375 49.75 7.8125 49.867188 8.140625 C 50.011719 8.53125 50.253906 8.855469 50.625 9.0625 C 50.671875 9.089844 50.710938 9.121094 50.757812 9.148438 C 50.988281 9.28125 51.058594 9.476562 50.929688 9.777344 C 50.832031 10.003906 50.71875 10.226562 50.605469 10.453125 C 50.304688 11.070312 50 11.691406 49.695312 12.308594 C 49.664062 12.382812 49.621094 12.449219 49.574219 12.511719 C 49.453125 12.652344 49.304688 12.695312 49.132812 12.652344 C 49.074219 12.636719 49.019531 12.617188 48.964844 12.589844 C 48.550781 12.394531 48.132812 12.390625 47.710938 12.554688 C 47.257812 12.734375 46.792969 12.820312 46.308594 12.820312 C 45.300781 12.8125 44.4375 12.433594 43.714844 11.730469 C 43.046875 11.078125 42.703125 10.273438 42.617188 9.347656 C 42.613281 9.296875 42.609375 9.242188 42.601562 9.191406 Z M 47.140625 11.886719 C 45.308594 11.632812 44.085938 10.625 43.414062 8.878906 C 43.28125 11.058594 45.515625 12.507812 47.140625 11.886719 Z M 47.140625 11.886719 " fill-opacity="1" fill-rule="nonzero"/><path fill="#fcfcfa" d="M 49.226562 19.953125 C 49.171875 20.34375 49.089844 20.730469 48.921875 21.089844 C 48.386719 22.242188 47.496094 22.949219 46.261719 23.207031 C 45.390625 23.390625 44.558594 23.242188 43.777344 22.816406 C 43.109375 22.449219 42.613281 21.914062 42.25 21.246094 C 42.226562 21.199219 42.199219 21.152344 42.171875 21.109375 C 42.09375 20.886719 42.019531 20.660156 41.933594 20.441406 C 41.851562 20.234375 41.71875 20.0625 41.539062 19.933594 C 41.410156 19.835938 41.269531 19.75 41.132812 19.660156 C 40.886719 19.496094 40.8125 19.261719 40.933594 18.996094 C 41.304688 18.183594 41.679688 17.371094 42.050781 16.558594 C 42.09375 16.46875 42.140625 16.382812 42.195312 16.300781 C 42.328125 16.113281 42.472656 16.0625 42.691406 16.132812 C 42.851562 16.183594 43.011719 16.242188 43.183594 16.265625 C 43.511719 16.308594 43.832031 16.285156 44.144531 16.15625 C 44.796875 15.886719 45.472656 15.789062 46.164062 15.921875 C 47.246094 16.132812 48.097656 16.699219 48.683594 17.648438 C 49.011719 18.175781 49.175781 18.761719 49.230469 19.378906 C 49.234375 19.402344 49.242188 19.429688 49.25 19.453125 L 49.234375 19.871094 C 49.21875 19.898438 49.214844 19.925781 49.226562 19.953125 Z M 48.433594 19.730469 C 48.46875 19.710938 48.460938 19.6875 48.460938 19.671875 C 48.445312 18.800781 48.148438 18.046875 47.507812 17.460938 C 46.832031 16.839844 46.042969 16.558594 45.125 16.707031 C 44.992188 16.722656 44.867188 16.757812 44.746094 16.8125 C 46.578125 17.050781 47.746094 18.089844 48.433594 19.730469 Z M 48.433594 19.730469 " fill-opacity="1" fill-rule="nonzero"/><path fill="#ffffff" d="M 39.644531 18.820312 C 39.648438 18.726562 39.667969 18.636719 39.710938 18.554688 C 39.964844 18.011719 40.21875 17.472656 40.472656 16.933594 C 40.640625 16.574219 40.804688 16.21875 40.972656 15.863281 C 41.007812 15.78125 41.046875 15.707031 41.089844 15.632812 C 41.214844 15.441406 41.449219 15.375 41.636719 15.472656 C 41.734375 15.523438 41.804688 15.601562 41.839844 15.707031 C 41.878906 15.808594 41.875 15.914062 41.832031 16.015625 C 41.753906 16.203125 41.664062 16.386719 41.578125 16.570312 C 41.222656 17.332031 40.855469 18.085938 40.519531 18.859375 C 40.488281 18.9375 40.445312 19.011719 40.394531 19.082031 C 40.265625 19.242188 40.105469 19.292969 39.925781 19.230469 C 39.75 19.164062 39.648438 19.015625 39.644531 18.820312 Z M 39.644531 18.820312 " fill-opacity="1" fill-rule="nonzero"/><path fill="#079af7" d="M 42.613281 8.925781 C 42.625 8.980469 42.625 9.039062 42.605469 9.09375 C 42.570312 9.035156 42.566406 8.980469 42.613281 8.925781 Z M 42.613281 8.925781 " fill-opacity="1" fill-rule="nonzero"/><path fill="#fccd06" d="M 47.140625 11.886719 C 45.515625 12.507812 43.28125 11.058594 43.414062 8.878906 C 44.085938 10.625 45.308594 11.632812 47.140625 11.886719 Z M 47.140625 11.886719 " fill-opacity="1" fill-rule="nonzero"/><path fill="#fccd06" d="M 48.433594 19.730469 C 47.746094 18.089844 46.578125 17.050781 44.746094 16.8125 C 44.867188 16.757812 44.992188 16.722656 45.125 16.707031 C 46.042969 16.558594 46.832031 16.839844 47.507812 17.460938 C 48.148438 18.046875 48.445312 18.800781 48.460938 19.671875 C 48.460938 19.6875 48.46875 19.710938 48.433594 19.730469 Z M 48.433594 19.730469 " fill-opacity="1" fill-rule="nonzero"/><g transform="matrix(1, 0, 0, 1, 55, 22)"><g clip-path="url(#f833e1d1c7)"><g fill="#fcfcfc" fill-opacity="1"><g transform="translate(0.838585, 3.087765)"><g><path d="M 0.9375 0.03125 C 0.695312 0.03125 0.507812 -0.03125 0.375 -0.15625 C 0.25 -0.289062 0.1875 -0.484375 0.1875 -0.734375 L 0.1875 -1.65625 L 0.5625 -1.65625 L 0.5625 -0.75 C 0.5625 -0.445312 0.6875 -0.296875 0.9375 -0.296875 C 1.0625 -0.296875 1.15625 -0.332031 1.21875 -0.40625 C 1.28125 -0.476562 1.3125 -0.59375 1.3125 -0.75 L 1.3125 -1.65625 L 1.6875 -1.65625 L 1.6875 -0.734375 C 1.6875 -0.484375 1.617188 -0.289062 1.484375 -0.15625 C 1.359375 -0.03125 1.175781 0.03125 0.9375 0.03125 Z M 0.9375 0.03125 "/></g></g></g><g fill="#fcfcfc" fill-opacity="1"><g transform="translate(3.756056, 3.087765)"><g><path d="M 1.296875 -0.359375 L 0.515625 -0.359375 L 0.375 0 L -0.015625 0 L 0.71875 -1.65625 L 1.09375 -1.65625 L 1.84375 0 L 1.4375 0 Z M 1.171875 -0.640625 L 0.90625 -1.28125 L 0.640625 -0.640625 Z M 1.171875 -0.640625 "/></g></g></g><g fill="#fcfcfc" fill-opacity="1"><g transform="translate(6.621301, 3.087765)"><g><path d="M 1.71875 -1.65625 L 1.71875 0 L 1.40625 0 L 0.578125 -1.015625 L 0.578125 0 L 0.203125 0 L 0.203125 -1.65625 L 0.515625 -1.65625 L 1.34375 -0.65625 L 1.34375 -1.65625 Z M 1.71875 -1.65625 "/></g></g></g><g fill="#fcfcfc" fill-opacity="1"><g transform="translate(9.586251, 3.087765)"><g><path d="M 1.328125 -0.859375 L 1.671875 -0.859375 L 1.671875 -0.1875 C 1.578125 -0.113281 1.472656 -0.0546875 1.359375 -0.015625 C 1.242188 0.015625 1.125 0.03125 1 0.03125 C 0.820312 0.03125 0.664062 -0.00390625 0.53125 -0.078125 C 0.394531 -0.148438 0.285156 -0.25 0.203125 -0.375 C 0.128906 -0.507812 0.09375 -0.660156 0.09375 -0.828125 C 0.09375 -0.992188 0.128906 -1.140625 0.203125 -1.265625 C 0.285156 -1.398438 0.394531 -1.503906 0.53125 -1.578125 C 0.675781 -1.648438 0.832031 -1.6875 1 -1.6875 C 1.144531 -1.6875 1.273438 -1.660156 1.390625 -1.609375 C 1.515625 -1.566406 1.617188 -1.5 1.703125 -1.40625 L 1.453125 -1.171875 C 1.335938 -1.296875 1.195312 -1.359375 1.03125 -1.359375 C 0.914062 -1.359375 0.816406 -1.335938 0.734375 -1.296875 C 0.660156 -1.253906 0.597656 -1.191406 0.546875 -1.109375 C 0.503906 -1.023438 0.484375 -0.929688 0.484375 -0.828125 C 0.484375 -0.722656 0.503906 -0.628906 0.546875 -0.546875 C 0.597656 -0.472656 0.660156 -0.410156 0.734375 -0.359375 C 0.816406 -0.316406 0.910156 -0.296875 1.015625 -0.296875 C 1.128906 -0.296875 1.234375 -0.320312 1.328125 -0.375 Z M 1.328125 -0.859375 "/></g></g></g><g fill="#fcfcfc" fill-opacity="1"><g transform="translate(12.463364, 3.087765)"><g><path d="M 0.203125 -1.65625 L 0.578125 -1.65625 L 0.578125 0 L 0.203125 0 Z M 0.203125 -1.65625 "/></g></g></g><g fill="#fcfcfc" fill-opacity="1"><g transform="translate(14.288859, 3.087765)"><g><path d="M 1.71875 -1.65625 L 1.71875 0 L 1.40625 0 L 0.578125 -1.015625 L 0.578125 0 L 0.203125 0 L 0.203125 -1.65625 L 0.515625 -1.65625 L 1.34375 -0.65625 L 1.34375 -1.65625 Z M 1.71875 -1.65625 "/></g></g></g><g fill="#fcfcfc" fill-opacity="1"><g transform="translate(17.253808, 3.087765)"><g/></g></g><g fill="#fcfcfc" fill-opacity="1"><g transform="translate(18.972478, 3.087765)"><g><path d="M 2.703125 -1.65625 L 2.171875 0 L 1.75 0 L 1.390625 -1.125 L 1.015625 0 L 0.59375 0 L 0.046875 -1.65625 L 0.453125 -1.65625 L 0.828125 -0.5 L 1.21875 -1.65625 L 1.578125 -1.65625 L 1.953125 -0.484375 L 2.34375 -1.65625 Z M 2.703125 -1.65625 "/></g></g></g><g fill="#fcfcfc" fill-opacity="1"><g transform="translate(22.780148, 3.087765)"><g><path d="M 1.296875 -0.359375 L 0.515625 -0.359375 L 0.375 0 L -0.015625 0 L 0.71875 -1.65625 L 1.09375 -1.65625 L 1.84375 0 L 1.4375 0 Z M 1.171875 -0.640625 L 0.90625 -1.28125 L 0.640625 -0.640625 Z M 1.171875 -0.640625 "/></g></g></g><g fill="#fcfcfc" fill-opacity="1"><g transform="translate(25.645394, 3.087765)"><g><path d="M 0.796875 -0.65625 L 0.578125 -0.421875 L 0.578125 0 L 0.203125 0 L 0.203125 -1.65625 L 0.578125 -1.65625 L 0.578125 -0.890625 L 1.3125 -1.65625 L 1.75 -1.65625 L 1.046875 -0.921875 L 1.78125 0 L 1.328125 0 Z M 0.796875 -0.65625 "/></g></g></g><g fill="#fcfcfc" fill-opacity="1"><g transform="translate(28.448919, 3.087765)"><g><path d="M 0.546875 -1.34375 L 0.015625 -1.34375 L 0.015625 -1.65625 L 1.453125 -1.65625 L 1.453125 -1.34375 L 0.921875 -1.34375 L 0.921875 0 L 0.546875 0 Z M 0.546875 -1.34375 "/></g></g></g><g fill="#fcfcfc" fill-opacity="1"><g transform="translate(30.962832, 3.087765)"><g><path d="M 0.9375 0.03125 C 0.695312 0.03125 0.507812 -0.03125 0.375 -0.15625 C 0.25 -0.289062 0.1875 -0.484375 0.1875 -0.734375 L 0.1875 -1.65625 L 0.5625 -1.65625 L 0.5625 -0.75 C 0.5625 -0.445312 0.6875 -0.296875 0.9375 -0.296875 C 1.0625 -0.296875 1.15625 -0.332031 1.21875 -0.40625 C 1.28125 -0.476562 1.3125 -0.59375 1.3125 -0.75 L 1.3125 -1.65625 L 1.6875 -1.65625 L 1.6875 -0.734375 C 1.6875 -0.484375 1.617188 -0.289062 1.484375 -0.15625 C 1.359375 -0.03125 1.175781 0.03125 0.9375 0.03125 Z M 0.9375 0.03125 "/></g></g></g><g fill="#fcfcfc" fill-opacity="1"><g transform="translate(33.880303, 3.087765)"><g/></g></g><g fill="#fcfcfc" fill-opacity="1"><g transform="translate(35.598973, 3.087765)"><g><path d="M 0.203125 -1.65625 L 0.578125 -1.65625 L 0.578125 -0.3125 L 1.421875 -0.3125 L 1.421875 0 L 0.203125 0 Z M 0.203125 -1.65625 "/></g></g></g><g fill="#fcfcfc" fill-opacity="1"><g transform="translate(38.079652, 3.087765)"><g><path d="M 1 0.03125 C 0.832031 0.03125 0.675781 -0.00390625 0.53125 -0.078125 C 0.394531 -0.148438 0.285156 -0.253906 0.203125 -0.390625 C 0.128906 -0.523438 0.09375 -0.671875 0.09375 -0.828125 C 0.09375 -0.992188 0.128906 -1.140625 0.203125 -1.265625 C 0.285156 -1.398438 0.394531 -1.503906 0.53125 -1.578125 C 0.675781 -1.648438 0.832031 -1.6875 1 -1.6875 C 1.175781 -1.6875 1.332031 -1.648438 1.46875 -1.578125 C 1.601562 -1.503906 1.707031 -1.398438 1.78125 -1.265625 C 1.863281 -1.140625 1.90625 -0.992188 1.90625 -0.828125 C 1.90625 -0.671875 1.863281 -0.523438 1.78125 -0.390625 C 1.707031 -0.253906 1.601562 -0.148438 1.46875 -0.078125 C 1.332031 -0.00390625 1.175781 0.03125 1 0.03125 Z M 1 -0.296875 C 1.101562 -0.296875 1.191406 -0.316406 1.265625 -0.359375 C 1.347656 -0.410156 1.410156 -0.472656 1.453125 -0.546875 C 1.492188 -0.628906 1.515625 -0.722656 1.515625 -0.828125 C 1.515625 -0.929688 1.492188 -1.023438 1.453125 -1.109375 C 1.410156 -1.191406 1.347656 -1.253906 1.265625 -1.296875 C 1.191406 -1.335938 1.101562 -1.359375 1 -1.359375 C 0.90625 -1.359375 0.816406 -1.335938 0.734375 -1.296875 C 0.660156 -1.253906 0.597656 -1.191406 0.546875 -1.109375 C 0.503906 -1.023438 0.484375 -0.929688 0.484375 -0.828125 C 0.484375 -0.722656 0.503906 -0.628906 0.546875 -0.546875 C 0.597656 -0.472656 0.660156 -0.410156 0.734375 -0.359375 C 0.816406 -0.316406 0.90625 -0.296875 1 -0.296875 Z M 1 -0.296875 "/></g></g></g></g></g></svg>