<svg id="Layer_1" data-name="Layer 1" xmlns="http://www.w3.org/2000/svg" xmlns:xlink="http://www.w3.org/1999/xlink" viewBox="0 0 150 44.8"><defs><style>.cls-1{fill:none;}.cls-2{clip-path:url(#clip-path);}.cls-3{font-size:39.96px;font-family:Montserrat-Black, Montserrat;font-weight:800;letter-spacing:-0.07em;}.cls-3,.cls-6{fill:#ffce00;}.cls-4,.cls-7{fill:#fccd06;}.cls-5{fill:#fff;}.cls-6,.cls-7{stroke:#fff;stroke-miterlimit:10;stroke-width:0.5px;}.cls-8{fill:#fcfcfc;}</style><clipPath id="clip-path" transform="translate(0 1.8)"><rect class="cls-1" width="150" height="40"/></clipPath></defs><g class="cls-2"><text class="cls-3" transform="translate(13.6 34)"><tspan xml:space="preserve">Ja  rud</tspan></text><path class="cls-4" d="M77.1,13.9c.1.1,0,.2,0,.3l-1.5,2.9-.7,1.5c-.2.3-.5.5-.8.3s-.5-.5-.4-.9a2,2,0,0,0,.4-.8l1.8-3.6.2-.3a.6.6,0,0,1,.7-.1A.9.9,0,0,1,77.1,13.9Z" transform="translate(0 1.8)"/><path class="cls-4" d="M76.5,18.9a.6.6,0,0,1-.6-.9c.2-.5.5-.9.7-1.4l.6-1.3a.7.7,0,0,1,.6-.4.7.7,0,0,1,.7.6c0,.2-.1.3-.1.5s-.9,1.7-1.3,2.5A.5.5,0,0,1,76.5,18.9Z" transform="translate(0 1.8)"/><path class="cls-5" d="M59.2,22.8c0,.1-.1.2-.1.3s-.8,1.8-1.3,2.7-.5.5-.9.3a.6.6,0,0,1-.3-.6c.1-.2.1-.4.2-.6a16.3,16.3,0,0,0,1.1-2.3.7.7,0,0,1,1-.4A.9.9,0,0,1,59.2,22.8Z" transform="translate(0 1.8)"/><path class="cls-6" d="M63.5,37.7h-1a26.3,26.3,0,0,1-5.9-2.2,19.7,19.7,0,0,1-3.8-2.6h-.1c-.2-.2-.2-.2,0-.3l2.4-2.9c.5-.6.9-1.2,1.4-1.7s.2-.3-.1-.4a2.1,2.1,0,0,1-1.1-2.6,29.6,29.6,0,0,1,1.5-3.1l.7-.7c0-.1-.1-.1-.2-.2a8.2,8.2,0,0,1-3.2-6A11,11,0,0,1,55,9.4a10,10,0,0,1,3.9-4.5l1.3-.7v.2l.6,2.1c.3,1.1.5,2.1.8,3.1s.5,2.1.8,3.1.1-.1.1-.1v.3a6.1,6.1,0,0,0,1.7,3.6,5.8,5.8,0,0,0,4,1.6,5.2,5.2,0,0,0,2.1-.4,2.5,2.5,0,0,1,1.9.1h.3a.7.7,0,0,0,.6-.2c.1-.1.2-.2.2-.3l1.4-2.9a9.3,9.3,0,0,0,.5-1,.6.6,0,0,0-.3-.9l-.2-.2A2.6,2.6,0,0,1,73.6,11L73,9.6h0a1.7,1.7,0,0,0-.1-.7c-.2-.8-.5-1.7-.7-2.6s-.3-1-.4-1.5-.3-1.1-.4-1.7,0-.1,0-.2l1.7.3a16.9,16.9,0,0,1,4.3,1.5,17.4,17.4,0,0,1,4,2.3c.2.2.2.2.1.5l-3.3,4.8c-.1.1-.1.1,0,.3a1.1,1.1,0,0,1,.3.8c.1.2.1.3.3.3a2.1,2.1,0,0,1,1,2.5,10.4,10.4,0,0,0-.5,1.2L78.4,19c-.1.3-.1.3.1.4l1.6,1.3a7.6,7.6,0,0,1,2.3,4.4,11.4,11.4,0,0,1-.1,4.5,9.2,9.2,0,0,1-3.8,5.8l-.7.6h-.6l-1.7.8h-.4a8.3,8.3,0,0,1-.4-1.5c-.3-1-.6-1.9-.8-2.9s-.7-2.5-1-3.7-.1-.6-.3-.8h0a6.1,6.1,0,0,0-.8-2.7,5.6,5.6,0,0,0-3.9-2.6,5.1,5.1,0,0,0-3,.4,3.9,3.9,0,0,1-1.5.2l-.8-.2c-.3-.2-.5-.1-.7.2a.8.8,0,0,0-.2.4c-.6,1.2-1.2,2.5-1.7,3.7a.7.7,0,0,0,.3,1l.6.4a1.6,1.6,0,0,1,.6.8l.3,1v.2a3.5,3.5,0,0,1,.3,1.1c.3.9.5,1.8.8,2.7s.5,1.8.7,2.8S63.6,37.7,63.5,37.7Z" transform="translate(0 1.8)"/><path class="cls-5" d="M77.1,13.9a.9.9,0,0,0-.3-.7.6.6,0,0,0-.7.1l-.2.3-1.8,3.6a2,2,0,0,1-.4.8c-.1.4,0,.8.4.9s.6,0,.8-.3l.7-1.5,1.5-2.9C77.1,14.1,77.2,14,77.1,13.9Z" transform="translate(0 1.8)"/><path class="cls-4" d="M58,27.2a.7.7,0,0,0,.4.6c.3.1.5.1.7-.2l.2-.3c.5-1.2,1.1-2.3,1.6-3.5a3,3,0,0,0,.4-.8.7.7,0,0,0-.3-.9.7.7,0,0,0-.8.3l-.2.3c-.2.6-.5,1.1-.7,1.7l-1.2,2.4A.6.6,0,0,0,58,27.2Z" transform="translate(0 1.8)"/><path class="cls-5" d="M76.5,18.9a.5.5,0,0,0,.6-.4c.4-.8.8-1.7,1.3-2.5s.1-.3.1-.5a.7.7,0,0,0-.7-.6.7.7,0,0,0-.6.4l-.6,1.3c-.2.5-.5.9-.7,1.4A.6.6,0,0,0,76.5,18.9Z" transform="translate(0 1.8)"/><path class="cls-5" d="M59.2,22.8a.9.9,0,0,0-.3-.6.7.7,0,0,0-1,.4,16.3,16.3,0,0,1-1.1,2.3c-.1.2-.1.4-.2.6a.6.6,0,0,0,.3.6c.4.2.8.1.9-.3s.9-1.8,1.3-2.7S59.2,22.9,59.2,22.8Z" transform="translate(0 1.8)"/><path class="cls-5" d="M63.5,37.7c.1,0,.2,0,.1-.2s-.5-1.9-.7-2.8-.5-1.8-.8-2.7a3.5,3.5,0,0,0-.3-1.1v-.2l.2.2a5.9,5.9,0,0,0,2.3,2.4,6.3,6.3,0,0,0,3.8.6,5.5,5.5,0,0,0,4-3.2,6.1,6.1,0,0,0,.5-1.8c.1,0,.1,0,0-.1v-.6c.2.2.2.5.3.8s.6,2.4,1,3.7.5,1.9.8,2.9a8.3,8.3,0,0,0,.4,1.5,16.4,16.4,0,0,1-4,1,22.3,22.3,0,0,1-7.3-.3Z" transform="translate(0 1.8)"/><path class="cls-5" d="M62.5,12.6s-.1.2-.1.1-.5-2.1-.8-3.1-.5-2-.8-3.1l-.6-2.1V4.2l2-.8a20.3,20.3,0,0,1,4.3-.7,22,22,0,0,1,4.4.2h.5c0,.1-.1.1,0,.2s.3,1.1.4,1.7.3,1,.4,1.5.5,1.8.7,2.6a1.7,1.7,0,0,1,.1.7h0l-.2-.2a5.6,5.6,0,0,0-9.7.6,9,9,0,0,0-.6,2.2C62.4,12.3,62.5,12.6,62.5,12.6Z" transform="translate(0 1.8)"/><path class="cls-7" d="M62.5,12.6h0a14,14,0,0,1,.6-2.5,5.6,5.6,0,0,1,9.7-.6l.2.2.6,1.4a2.6,2.6,0,0,0,1.1,1.4l.2.2a.6.6,0,0,1,.3.9,9.3,9.3,0,0,1-.5,1l-1.4,2.9c0,.1-.1.2-.2.3a.7.7,0,0,1-.6.2h-.3a2.5,2.5,0,0,0-1.9-.1,5.2,5.2,0,0,1-2.1.4,5.8,5.8,0,0,1-4-1.6,6.1,6.1,0,0,1-1.7-3.6Zm6.9,4.1a6.8,6.8,0,0,1-5.7-4.5C63.5,15.5,66.9,17.7,69.4,16.7Z" transform="translate(0 1.8)"/><path class="cls-7" d="M72.6,28.9a6.1,6.1,0,0,1-.5,1.8,5.5,5.5,0,0,1-4,3.2,6.3,6.3,0,0,1-3.8-.6A5.9,5.9,0,0,1,62,30.9l-.2-.2-.3-1a1.6,1.6,0,0,0-.6-.8l-.6-.4a.7.7,0,0,1-.3-1c.5-1.2,1.1-2.5,1.7-3.7a.8.8,0,0,1,.2-.4c.2-.3.4-.4.7-.2l.8.2a3.9,3.9,0,0,0,1.5-.2,5.1,5.1,0,0,1,3-.4,5.6,5.6,0,0,1,3.9,2.6,6.1,6.1,0,0,1,.8,2.7h0v.6Zm-1.2-.3h0A4.2,4.2,0,0,0,70,25.2,4.2,4.2,0,0,0,66.3,24l-.5.2C68.6,24.5,70.3,26.1,71.4,28.6Z" transform="translate(0 1.8)"/><path class="cls-5" d="M58,27.2a.6.6,0,0,1,.1-.4l1.2-2.4c.2-.6.5-1.1.7-1.7l.2-.3a.7.7,0,0,1,.8-.3.7.7,0,0,1,.3.9,3,3,0,0,1-.4.8c-.5,1.2-1.1,2.3-1.6,3.5l-.2.3c-.2.3-.4.3-.7.2A.7.7,0,0,1,58,27.2Z" transform="translate(0 1.8)"/><path class="cls-8" d="M69.4,16.7c-2.5,1-5.9-1.2-5.7-4.5A6.8,6.8,0,0,0,69.4,16.7Z" transform="translate(0 1.8)"/><path class="cls-8" d="M71.4,28.6c-1.1-2.5-2.8-4.1-5.6-4.4l.5-.2A4.2,4.2,0,0,1,70,25.2a4.2,4.2,0,0,1,1.4,3.3Z" transform="translate(0 1.8)"/><rect class="cls-1" y="1.8" width="150" height="40"/></g></svg>