<svg id="Layer_1" data-name="Layer 1" xmlns="http://www.w3.org/2000/svg" xmlns:xlink="http://www.w3.org/1999/xlink" viewBox="0 0 123.4 38"><defs><style>.cls-1{fill:none;}.cls-2{clip-path:url(#clip-path);}.cls-3,.cls-5{fill:#fccd06;}.cls-4{fill:#fff;}.cls-5,.cls-7{stroke:#fccd06;stroke-miterlimit:10;stroke-width:0.5px;}.cls-6{fill:#020202;}</style><clipPath id="clip-path" transform="translate(-16.7 -1)"><rect class="cls-1" width="150" height="40"/></clipPath></defs><g class="cls-2"><path d="M16.7,29.1l5-6c1.5,1.8,2.9,2.7,4.5,2.7s3-1.2,3-3.5V11.7H19.7V4.6H38.5V21.8c0,7.7-4,11.4-11.5,11.4C22.6,33.2,19,31.8,16.7,29.1Z" transform="translate(-16.7 -1)"/><path d="M57.5,20.8V32.6H49.1V29.7C48,31.9,45.9,33,42.9,33c-5.4,0-8.1-3.1-8.1-6.8s3.2-6.6,9.9-6.6h3.7c-.3-1.7-1.6-2.6-4.1-2.6a9.6,9.6,0,0,0-5.6,1.8l-2.9-6a19.8,19.8,0,0,1,9.8-2.5C53.1,10.3,57.5,13.6,57.5,20.8Zm-9.1,4.7V23.9H46.2c-1.9,0-2.8.7-2.8,1.9s.8,1.7,2.2,1.7A2.8,2.8,0,0,0,48.4,25.5Z" transform="translate(-16.7 -1)"/><path d="M92.9,10.3v8h-2c-2.8,0-4.7,1.2-4.7,4.7v9.7h-9V10.7h8.6v2.4C87.4,11.2,89.8,10.3,92.9,10.3Z" transform="translate(-16.7 -1)"/><path d="M115.6,10.7V32.6H107V30.5a8.3,8.3,0,0,1-6.2,2.5c-5.2,0-9.2-3.1-9.2-10.2V10.7h9V21.2c0,3.1,1.1,4.2,2.9,4.2s3.1-1.2,3.1-4.4V10.7Z" transform="translate(-16.7 -1)"/><path d="M140,2.9V32.6h-8.5V30.8c-1.4,1.5-3.3,2.2-6,2.2-5.8,0-10.6-4.3-10.6-11.4s4.8-11.3,10.6-11.3a7.4,7.4,0,0,1,5.5,1.9V2.9Zm-8.8,18.7c0-2.8-1.6-4.2-3.6-4.2s-3.5,1.4-3.5,4.2,1.5,4.3,3.5,4.3S131.2,24.5,131.2,21.6Z" transform="translate(-16.7 -1)"/><path class="cls-3" d="M76.8,13a.4.4,0,0,1-.1.3l-1.5,3.2a10.9,10.9,0,0,0-.8,1.5.6.6,0,0,1-.9.3c-.4-.1-.5-.5-.4-.9l.5-.9c.6-1.3,1.2-2.5,1.9-3.8s.1-.3.2-.3a.6.6,0,0,1,.7-.1C76.7,12.4,76.8,12.6,76.8,13Z" transform="translate(-16.7 -1)"/><path class="cls-3" d="M76.1,18.4c-.5,0-.8-.5-.6-1.1l.7-1.4.7-1.4a.5.5,0,0,1,.6-.4c.4,0,.7.2.7.6a.7.7,0,0,1-.1.5c-.5.9-.9,1.8-1.3,2.7S76.4,18.4,76.1,18.4Z" transform="translate(-16.7 -1)"/><path class="cls-4" d="M57.6,22.5a.8.8,0,0,1-.1.4l-1.3,2.8a.6.6,0,0,1-1,.3.4.4,0,0,1-.3-.6,1.4,1.4,0,0,1,.2-.6l1.2-2.6a.7.7,0,0,1,1-.3A.6.6,0,0,1,57.6,22.5Z" transform="translate(-16.7 -1)"/><path class="cls-5" d="M62.2,38.5l-1-.2A28,28,0,0,1,54.9,36a19.8,19.8,0,0,1-4.1-2.8.1.1,0,0,1-.1-.1c-.2-.2-.2-.2-.1-.4l2.7-3.1,1.4-1.8c.2-.2.2-.2-.1-.4a2.1,2.1,0,0,1-1.1-2.7,21.1,21.1,0,0,1,1.6-3.4,1.6,1.6,0,0,1,.7-.7.3.3,0,0,0-.1-.2A8.4,8.4,0,0,1,52.2,14a12.7,12.7,0,0,1,.9-5.8,11.5,11.5,0,0,1,4.2-4.8l1.4-.8v.3l.6,2.2.9,3.3.9,3.3c0,.1,0-.1.1-.1v.3A5.5,5.5,0,0,0,63,15.7a5.6,5.6,0,0,0,4.2,1.8,6.2,6.2,0,0,0,2.3-.4,2.3,2.3,0,0,1,2,0h.3a.6.6,0,0,0,.7-.2l.2-.3,1.5-3a5.4,5.4,0,0,0,.5-1.1c.2-.5.1-.8-.3-1l-.2-.2A2.3,2.3,0,0,1,73,9.9a10.1,10.1,0,0,0-.7-1.5h.1c0-.3-.1-.5-.1-.7s-.5-1.9-.8-2.8-.3-1.1-.4-1.6-.3-1.2-.5-1.8,0-.1.1-.2a8.6,8.6,0,0,1,1.7.3,18.4,18.4,0,0,1,4.7,1.5,27.3,27.3,0,0,1,4.3,2.6c.2.2.2.2,0,.4l-3.5,5.2c-.1.1-.1.1,0,.3a1.9,1.9,0,0,1,.4.9l.2.3a2.3,2.3,0,0,1,1.1,2.7,4.9,4.9,0,0,1-.6,1.3l-.8,1.7c-.1.2-.1.2.1.4L80,20.2a8.5,8.5,0,0,1,2.4,4.7,13.4,13.4,0,0,1-.1,4.9,10.9,10.9,0,0,1-4,6.2l-.9.6h-.5a15.1,15.1,0,0,1-1.8.9h-.5c-.2-.5-.3-1.1-.5-1.6s-.5-2.1-.8-3.2-.7-2.6-1.1-3.9a2.9,2.9,0,0,0-.2-.9h-.1a5.7,5.7,0,0,0-.8-2.8A6.5,6.5,0,0,0,67,22.5a6.1,6.1,0,0,0-3.3.4,3,3,0,0,1-1.6.2l-.8-.2c-.4-.1-.6-.1-.8.2s-.2.3-.2.5l-1.9,3.9a.9.9,0,0,0,.4,1.1l.6.4a2.7,2.7,0,0,1,.7.8,3.6,3.6,0,0,0,.4,1.1c-.1.1-.1.1-.1.2a5,5,0,0,1,.4,1.3c.2.9.5,1.8.7,2.8l.9,3C62.4,38.4,62.3,38.4,62.2,38.5Z" transform="translate(-16.7 -1)"/><path d="M76.8,13c0-.4-.1-.6-.4-.7a.6.6,0,0,0-.7.1c-.1,0-.2.2-.2.3s-1.3,2.5-1.9,3.8l-.5.9c-.1.4,0,.8.4.9a.6.6,0,0,0,.9-.3,10.9,10.9,0,0,1,.8-1.5l1.5-3.2A.4.4,0,0,0,76.8,13Z" transform="translate(-16.7 -1)"/><path class="cls-3" d="M56.3,27.2c.1.3.2.6.5.7a.7.7,0,0,0,.8-.3l.2-.3c.5-1.3,1.1-2.5,1.7-3.7l.4-.9a.8.8,0,0,0-.3-.9.6.6,0,0,0-.9.3l-.2.3-.8,1.8-1.2,2.6A.8.8,0,0,0,56.3,27.2Z" transform="translate(-16.7 -1)"/><path d="M76.1,18.4c.3,0,.5-.2.7-.5s.8-1.8,1.3-2.7a.7.7,0,0,0,.1-.5c0-.4-.3-.6-.7-.6a.5.5,0,0,0-.6.4l-.7,1.4-.7,1.4C75.3,17.9,75.6,18.4,76.1,18.4Z" transform="translate(-16.7 -1)"/><path d="M57.6,22.5a.6.6,0,0,0-.3-.6.7.7,0,0,0-1,.3l-1.2,2.6a1.4,1.4,0,0,0-.2.6.4.4,0,0,0,.3.6.6.6,0,0,0,1-.3l1.3-2.8A.8.8,0,0,0,57.6,22.5Z" transform="translate(-16.7 -1)"/><path class="cls-6" d="M62.2,38.5c.1-.1.2-.1.2-.3l-.9-3c-.2-1-.5-1.9-.7-2.8a5,5,0,0,0-.4-1.3c0-.1,0-.1.1-.2s0,.2.1.2a6.3,6.3,0,0,0,2.5,2.6,6,6,0,0,0,8.3-2.8,4.1,4.1,0,0,0,.5-1.8c.1-.1.1-.1.1-.2v-.7a2.9,2.9,0,0,1,.2.9c.4,1.3.8,2.6,1.1,3.9s.6,2.1.8,3.2.3,1.1.5,1.6a19.4,19.4,0,0,1-4.3,1.1,29.2,29.2,0,0,1-7.8-.4Z" transform="translate(-16.7 -1)"/><path d="M61.2,11.6c-.1,0-.1.2-.1.1l-.9-3.3-.9-3.3-.6-2.2V2.6l2.1-.8A17.7,17.7,0,0,1,65.4,1a38.5,38.5,0,0,1,4.8.2h.5c-.1.1-.1.1-.1.2s.3,1.2.5,1.8.3,1,.4,1.6.5,1.9.8,2.8.1.4.1.7h-.1V8.2a6.4,6.4,0,0,0-4.3-2.7,6.1,6.1,0,0,0-6.7,5.7C61.1,11.3,61.2,11.6,61.2,11.6Z" transform="translate(-16.7 -1)"/><path class="cls-7" d="M61.2,11.6h0a14.6,14.6,0,0,1,.6-2.6,6.1,6.1,0,0,1,6.1-3.4,6.4,6.4,0,0,1,4.3,2.7v.2A10.1,10.1,0,0,1,73,9.9a2.3,2.3,0,0,0,1.2,1.5l.2.2c.4.2.5.5.3,1a5.4,5.4,0,0,1-.5,1.1l-1.5,3-.2.3a.6.6,0,0,1-.7.2h-.3a2.3,2.3,0,0,0-2,0,6.2,6.2,0,0,1-2.3.4A5.6,5.6,0,0,1,63,15.7a5.5,5.5,0,0,1-1.8-3.8ZM68.5,16a7.1,7.1,0,0,1-6-4.9C62.3,14.7,65.9,17,68.5,16Z" transform="translate(-16.7 -1)"/><path class="cls-7" d="M71.9,29.1a4.1,4.1,0,0,1-.5,1.8,6,6,0,0,1-8.3,2.8,6.3,6.3,0,0,1-2.5-2.6c-.1,0-.1-.1-.1-.2a3.6,3.6,0,0,1-.4-1.1,2.7,2.7,0,0,0-.7-.8l-.6-.4a.9.9,0,0,1-.4-1.1l1.9-3.9c0-.2.1-.3.2-.5s.4-.3.8-.2l.8.2a3,3,0,0,0,1.6-.2,6.1,6.1,0,0,1,3.3-.4,6.5,6.5,0,0,1,4.1,2.8,5.7,5.7,0,0,1,.8,2.8H72v.7C71.9,29,71.9,29,71.9,29.1Zm-1.2-.4h0A4.6,4.6,0,0,0,69.1,25a4.4,4.4,0,0,0-3.8-1.2l-.6.2A7.3,7.3,0,0,1,70.7,28.7Z" transform="translate(-16.7 -1)"/><path d="M56.3,27.2a.8.8,0,0,1,.2-.4l1.2-2.6.8-1.8.2-.3a.6.6,0,0,1,.9-.3.8.8,0,0,1,.3.9l-.4.9c-.6,1.2-1.2,2.4-1.7,3.7l-.2.3a.7.7,0,0,1-.8.3C56.5,27.8,56.4,27.5,56.3,27.2Z" transform="translate(-16.7 -1)"/><path class="cls-3" d="M68.5,16c-2.6,1-6.2-1.3-6-4.9A7.1,7.1,0,0,0,68.5,16Z" transform="translate(-16.7 -1)"/><path class="cls-3" d="M70.7,28.7a7.3,7.3,0,0,0-6-4.7l.6-.2A4.4,4.4,0,0,1,69.1,25a4.6,4.6,0,0,1,1.6,3.6Z" transform="translate(-16.7 -1)"/></g></svg>