<svg xmlns="http://www.w3.org/2000/svg" xmlns:xlink="http://www.w3.org/1999/xlink" width="150" zoomAndPan="magnify" viewBox="0 0 112.5 30.000001" height="40" preserveAspectRatio="xMidYMid meet" version="1.0"><defs><g/><clipPath id="cfe8b98d76"><path d="M 36 2.613281 L 55.71875 2.613281 L 55.71875 27 L 36 27 Z M 36 2.613281 " clip-rule="nonzero"/></clipPath><clipPath id="ea5e8befb2"><path d="M 41 2.613281 L 50 2.613281 L 50 10 L 41 10 Z M 41 2.613281 " clip-rule="nonzero"/></clipPath><clipPath id="de62712430"><rect x="0" width="42" y="0" height="5"/></clipPath></defs><g fill="#000000" fill-opacity="0.4"><g transform="translate(10.983782, 21.733545)"><g><path d="M 6.75 0.46875 C 5.175781 0.46875 3.75 0.210938 2.46875 -0.296875 C 1.1875 -0.804688 0.132812 -1.550781 -0.6875 -2.53125 L 2.96875 -6.859375 C 3.507812 -6.191406 4.039062 -5.691406 4.5625 -5.359375 C 5.082031 -5.035156 5.617188 -4.875 6.171875 -4.875 C 6.878906 -4.875 7.421875 -5.082031 7.796875 -5.5 C 8.171875 -5.925781 8.359375 -6.554688 8.359375 -7.390625 L 8.359375 -15.0625 L 1.5 -15.0625 L 1.5 -20.1875 L 15.078125 -20.1875 L 15.078125 -7.78125 C 15.078125 -5.03125 14.367188 -2.96875 12.953125 -1.59375 C 11.546875 -0.21875 9.476562 0.46875 6.75 0.46875 Z M 6.75 0.46875 "/></g></g></g><g fill="#000000" fill-opacity="0.4"><g transform="translate(24.312745, 21.733545)"><g><path d="M 8.515625 -16.0625 C 11.273438 -16.0625 13.382812 -15.441406 14.84375 -14.203125 C 16.3125 -12.960938 17.046875 -11.054688 17.046875 -8.484375 L 17.046875 0 L 10.984375 0 L 10.984375 -2.078125 C 10.234375 -0.503906 8.742188 0.28125 6.515625 0.28125 C 5.265625 0.28125 4.203125 0.0664062 3.328125 -0.359375 C 2.453125 -0.796875 1.785156 -1.382812 1.328125 -2.125 C 0.878906 -2.863281 0.65625 -3.691406 0.65625 -4.609375 C 0.65625 -6.171875 1.25 -7.351562 2.4375 -8.15625 C 3.632812 -8.96875 5.445312 -9.375 7.875 -9.375 L 10.5 -9.375 C 10.289062 -10.601562 9.300781 -11.21875 7.53125 -11.21875 C 6.820312 -11.21875 6.097656 -11.109375 5.359375 -10.890625 C 4.628906 -10.671875 4.003906 -10.367188 3.484375 -9.984375 L 1.40625 -14.28125 C 2.3125 -14.832031 3.40625 -15.265625 4.6875 -15.578125 C 5.96875 -15.898438 7.242188 -16.0625 8.515625 -16.0625 Z M 8.484375 -3.640625 C 8.941406 -3.640625 9.351562 -3.765625 9.71875 -4.015625 C 10.082031 -4.265625 10.351562 -4.640625 10.53125 -5.140625 L 10.53125 -6.234375 L 8.90625 -6.234375 C 7.582031 -6.234375 6.921875 -5.789062 6.921875 -4.90625 C 6.921875 -4.539062 7.0625 -4.238281 7.34375 -4 C 7.625 -3.757812 8.003906 -3.640625 8.484375 -3.640625 Z M 8.484375 -3.640625 "/></g></g></g><g fill="#000000" fill-opacity="0.4"><g transform="translate(39.517048, 21.733545)"><g/></g></g><g fill="#000000" fill-opacity="0.4"><g transform="translate(44.940872, 21.733545)"><g/></g></g><g fill="#000000" fill-opacity="0.4"><g transform="translate(50.370122, 21.733545)"><g><path d="M 18.6875 -15.78125 L 18.6875 0 L 12.484375 0 L 12.484375 -1.5 C 11.910156 -0.90625 11.238281 -0.457031 10.46875 -0.15625 C 9.695312 0.132812 8.878906 0.28125 8.015625 0.28125 C 6.015625 0.28125 4.410156 -0.328125 3.203125 -1.546875 C 1.992188 -2.765625 1.390625 -4.601562 1.390625 -7.0625 L 1.390625 -15.78125 L 7.90625 -15.78125 L 7.90625 -8.1875 C 7.90625 -7.113281 8.078125 -6.34375 8.421875 -5.875 C 8.765625 -5.414062 9.273438 -5.1875 9.953125 -5.1875 C 10.585938 -5.1875 11.113281 -5.441406 11.53125 -5.953125 C 11.957031 -6.460938 12.171875 -7.265625 12.171875 -8.359375 L 12.171875 -15.78125 Z M 18.6875 -15.78125 "/></g></g></g><g fill="#000000" fill-opacity="0.4"><g transform="translate(67.276597, 21.733545)"><g><path d="M 7.640625 -14.078125 C 8.796875 -15.398438 10.5 -16.0625 12.75 -16.0625 L 12.75 -10.296875 C 12.226562 -10.367188 11.75 -10.40625 11.3125 -10.40625 C 9.070312 -10.40625 7.953125 -9.273438 7.953125 -7.015625 L 7.953125 0 L 1.4375 0 L 1.4375 -15.78125 L 7.640625 -15.78125 Z M 7.640625 -14.078125 "/></g></g></g><g fill="#000000" fill-opacity="0.4"><g transform="translate(77.20116, 21.733545)"><g><path d="M 18.890625 -21.40625 L 18.890625 0 L 12.6875 0 L 12.6875 -1.296875 C 11.75 -0.242188 10.304688 0.28125 8.359375 0.28125 C 6.972656 0.28125 5.695312 -0.046875 4.53125 -0.703125 C 3.375 -1.367188 2.453125 -2.328125 1.765625 -3.578125 C 1.085938 -4.828125 0.75 -6.269531 0.75 -7.90625 C 0.75 -9.539062 1.085938 -10.976562 1.765625 -12.21875 C 2.453125 -13.457031 3.375 -14.40625 4.53125 -15.0625 C 5.695312 -15.726562 6.972656 -16.0625 8.359375 -16.0625 C 10.109375 -16.0625 11.445312 -15.609375 12.375 -14.703125 L 12.375 -21.40625 Z M 9.921875 -4.78125 C 10.671875 -4.78125 11.285156 -5.054688 11.765625 -5.609375 C 12.242188 -6.160156 12.484375 -6.925781 12.484375 -7.90625 C 12.484375 -8.882812 12.242188 -9.640625 11.765625 -10.171875 C 11.285156 -10.710938 10.671875 -10.984375 9.921875 -10.984375 C 9.171875 -10.984375 8.554688 -10.710938 8.078125 -10.171875 C 7.597656 -9.640625 7.359375 -8.882812 7.359375 -7.90625 C 7.359375 -6.925781 7.597656 -6.160156 8.078125 -5.609375 C 8.554688 -5.054688 9.171875 -4.78125 9.921875 -4.78125 Z M 9.921875 -4.78125 "/></g></g></g><g fill="#fccd06" fill-opacity="1"><g transform="translate(10.983782, 21.733545)"><g><path d="M 6.75 0.46875 C 5.175781 0.46875 3.75 0.210938 2.46875 -0.296875 C 1.1875 -0.804688 0.132812 -1.550781 -0.6875 -2.53125 L 2.96875 -6.859375 C 3.507812 -6.191406 4.039062 -5.691406 4.5625 -5.359375 C 5.082031 -5.035156 5.617188 -4.875 6.171875 -4.875 C 6.878906 -4.875 7.421875 -5.082031 7.796875 -5.5 C 8.171875 -5.925781 8.359375 -6.554688 8.359375 -7.390625 L 8.359375 -15.0625 L 1.5 -15.0625 L 1.5 -20.1875 L 15.078125 -20.1875 L 15.078125 -7.78125 C 15.078125 -5.03125 14.367188 -2.96875 12.953125 -1.59375 C 11.546875 -0.21875 9.476562 0.46875 6.75 0.46875 Z M 6.75 0.46875 "/></g></g></g><g fill="#fccd06" fill-opacity="1"><g transform="translate(24.312745, 21.733545)"><g><path d="M 8.515625 -16.0625 C 11.273438 -16.0625 13.382812 -15.441406 14.84375 -14.203125 C 16.3125 -12.960938 17.046875 -11.054688 17.046875 -8.484375 L 17.046875 0 L 10.984375 0 L 10.984375 -2.078125 C 10.234375 -0.503906 8.742188 0.28125 6.515625 0.28125 C 5.265625 0.28125 4.203125 0.0664062 3.328125 -0.359375 C 2.453125 -0.796875 1.785156 -1.382812 1.328125 -2.125 C 0.878906 -2.863281 0.65625 -3.691406 0.65625 -4.609375 C 0.65625 -6.171875 1.25 -7.351562 2.4375 -8.15625 C 3.632812 -8.96875 5.445312 -9.375 7.875 -9.375 L 10.5 -9.375 C 10.289062 -10.601562 9.300781 -11.21875 7.53125 -11.21875 C 6.820312 -11.21875 6.097656 -11.109375 5.359375 -10.890625 C 4.628906 -10.671875 4.003906 -10.367188 3.484375 -9.984375 L 1.40625 -14.28125 C 2.3125 -14.832031 3.40625 -15.265625 4.6875 -15.578125 C 5.96875 -15.898438 7.242188 -16.0625 8.515625 -16.0625 Z M 8.484375 -3.640625 C 8.941406 -3.640625 9.351562 -3.765625 9.71875 -4.015625 C 10.082031 -4.265625 10.351562 -4.640625 10.53125 -5.140625 L 10.53125 -6.234375 L 8.90625 -6.234375 C 7.582031 -6.234375 6.921875 -5.789062 6.921875 -4.90625 C 6.921875 -4.539062 7.0625 -4.238281 7.34375 -4 C 7.625 -3.757812 8.003906 -3.640625 8.484375 -3.640625 Z M 8.484375 -3.640625 "/></g></g></g><g fill="#fccd06" fill-opacity="1"><g transform="translate(39.517048, 21.733545)"><g/></g></g><g fill="#fccd06" fill-opacity="1"><g transform="translate(44.940872, 21.733545)"><g/></g></g><g fill="#fccd06" fill-opacity="1"><g transform="translate(50.370122, 21.733545)"><g><path d="M 18.6875 -15.78125 L 18.6875 0 L 12.484375 0 L 12.484375 -1.5 C 11.910156 -0.90625 11.238281 -0.457031 10.46875 -0.15625 C 9.695312 0.132812 8.878906 0.28125 8.015625 0.28125 C 6.015625 0.28125 4.410156 -0.328125 3.203125 -1.546875 C 1.992188 -2.765625 1.390625 -4.601562 1.390625 -7.0625 L 1.390625 -15.78125 L 7.90625 -15.78125 L 7.90625 -8.1875 C 7.90625 -7.113281 8.078125 -6.34375 8.421875 -5.875 C 8.765625 -5.414062 9.273438 -5.1875 9.953125 -5.1875 C 10.585938 -5.1875 11.113281 -5.441406 11.53125 -5.953125 C 11.957031 -6.460938 12.171875 -7.265625 12.171875 -8.359375 L 12.171875 -15.78125 Z M 18.6875 -15.78125 "/></g></g></g><g fill="#fccd06" fill-opacity="1"><g transform="translate(67.276597, 21.733545)"><g><path d="M 7.640625 -14.078125 C 8.796875 -15.398438 10.5 -16.0625 12.75 -16.0625 L 12.75 -10.296875 C 12.226562 -10.367188 11.75 -10.40625 11.3125 -10.40625 C 9.070312 -10.40625 7.953125 -9.273438 7.953125 -7.015625 L 7.953125 0 L 1.4375 0 L 1.4375 -15.78125 L 7.640625 -15.78125 Z M 7.640625 -14.078125 "/></g></g></g><g fill="#fccd06" fill-opacity="1"><g transform="translate(77.20116, 21.733545)"><g><path d="M 18.890625 -21.40625 L 18.890625 0 L 12.6875 0 L 12.6875 -1.296875 C 11.75 -0.242188 10.304688 0.28125 8.359375 0.28125 C 6.972656 0.28125 5.695312 -0.046875 4.53125 -0.703125 C 3.375 -1.367188 2.453125 -2.328125 1.765625 -3.578125 C 1.085938 -4.828125 0.75 -6.269531 0.75 -7.90625 C 0.75 -9.539062 1.085938 -10.976562 1.765625 -12.21875 C 2.453125 -13.457031 3.375 -14.40625 4.53125 -15.0625 C 5.695312 -15.726562 6.972656 -16.0625 8.359375 -16.0625 C 10.109375 -16.0625 11.445312 -15.609375 12.375 -14.703125 L 12.375 -21.40625 Z M 9.921875 -4.78125 C 10.671875 -4.78125 11.285156 -5.054688 11.765625 -5.609375 C 12.242188 -6.160156 12.484375 -6.925781 12.484375 -7.90625 C 12.484375 -8.882812 12.242188 -9.640625 11.765625 -10.171875 C 11.285156 -10.710938 10.671875 -10.984375 9.921875 -10.984375 C 9.171875 -10.984375 8.554688 -10.710938 8.078125 -10.171875 C 7.597656 -9.640625 7.359375 -8.882812 7.359375 -7.90625 C 7.359375 -6.925781 7.597656 -6.160156 8.078125 -5.609375 C 8.554688 -5.054688 9.171875 -4.78125 9.921875 -4.78125 Z M 9.921875 -4.78125 "/></g></g></g><path fill="#fccd06" d="M 52.710938 10.140625 C 52.714844 10.207031 52.683594 10.277344 52.648438 10.351562 L 51.675781 12.332031 C 51.511719 12.664062 51.351562 12.992188 51.183594 13.320312 C 51.074219 13.542969 50.851562 13.621094 50.625 13.523438 C 50.390625 13.417969 50.300781 13.183594 50.410156 12.9375 C 50.496094 12.75 50.589844 12.5625 50.679688 12.378906 C 51.074219 11.574219 51.46875 10.769531 51.863281 9.964844 C 51.902344 9.886719 51.9375 9.804688 52.011719 9.753906 C 52.15625 9.652344 52.304688 9.628906 52.464844 9.714844 C 52.625 9.800781 52.707031 9.941406 52.710938 10.140625 Z M 52.710938 10.140625 " fill-opacity="1" fill-rule="nonzero"/><path fill="#fccd06" d="M 52.277344 13.53125 C 51.9375 13.527344 51.75 13.210938 51.898438 12.882812 C 52.03125 12.582031 52.171875 12.285156 52.324219 11.996094 C 52.480469 11.699219 52.621094 11.394531 52.769531 11.09375 C 52.851562 10.921875 52.980469 10.824219 53.179688 10.824219 C 53.417969 10.828125 53.582031 10.980469 53.601562 11.21875 C 53.609375 11.34375 53.582031 11.457031 53.523438 11.566406 C 53.242188 12.128906 52.960938 12.691406 52.683594 13.257812 C 52.597656 13.429688 52.476562 13.539062 52.277344 13.53125 Z M 52.277344 13.53125 " fill-opacity="1" fill-rule="nonzero"/><path fill="#fccd06" d="M 40.621094 16.128906 C 40.621094 16.210938 40.601562 16.289062 40.5625 16.363281 C 40.28125 16.960938 40 17.5625 39.714844 18.160156 C 39.589844 18.417969 39.332031 18.492188 39.09375 18.351562 C 38.9375 18.257812 38.871094 18.109375 38.898438 17.925781 C 38.921875 17.800781 38.976562 17.683594 39.027344 17.570312 C 39.28125 17.035156 39.535156 16.503906 39.789062 15.972656 C 39.921875 15.695312 40.171875 15.601562 40.414062 15.742188 C 40.5625 15.828125 40.617188 15.964844 40.621094 16.128906 Z M 40.621094 16.128906 " fill-opacity="1" fill-rule="nonzero"/><g clip-path="url(#cfe8b98d76)"><path fill="#fcfcfc" d="M 43.511719 26.160156 C 43.292969 26.15625 43.089844 26.085938 42.878906 26.039062 C 41.488281 25.734375 40.15625 25.269531 38.898438 24.601562 C 37.976562 24.113281 37.109375 23.542969 36.324219 22.855469 C 36.292969 22.828125 36.261719 22.800781 36.234375 22.773438 C 36.128906 22.667969 36.128906 22.667969 36.226562 22.546875 C 36.773438 21.894531 37.320312 21.242188 37.871094 20.59375 C 38.179688 20.222656 38.484375 19.847656 38.792969 19.476562 C 38.910156 19.339844 38.9375 19.3125 38.742188 19.226562 C 38.210938 18.992188 37.714844 18.269531 38.023438 17.484375 C 38.3125 16.765625 38.652344 16.066406 39.015625 15.378906 C 39.125 15.183594 39.277344 15.03125 39.472656 14.921875 C 39.46875 14.855469 39.421875 14.832031 39.386719 14.804688 C 38.050781 13.789062 37.363281 12.425781 37.230469 10.773438 C 37.125 9.515625 37.292969 8.300781 37.796875 7.140625 C 38.355469 5.863281 39.265625 4.882812 40.429688 4.125 C 40.703125 3.945312 40.980469 3.769531 41.289062 3.648438 C 41.300781 3.699219 41.308594 3.753906 41.320312 3.804688 C 41.449219 4.273438 41.578125 4.742188 41.703125 5.210938 C 41.886719 5.90625 42.066406 6.601562 42.25 7.296875 C 42.429688 7.972656 42.609375 8.648438 42.796875 9.324219 C 42.8125 9.390625 42.832031 9.308594 42.855469 9.304688 C 42.863281 9.359375 42.871094 9.410156 42.875 9.464844 C 42.960938 10.40625 43.316406 11.222656 44 11.886719 C 44.742188 12.601562 45.625 12.984375 46.660156 12.996094 C 47.15625 12.996094 47.636719 12.90625 48.097656 12.726562 C 48.53125 12.558594 48.960938 12.5625 49.386719 12.761719 C 49.441406 12.789062 49.496094 12.808594 49.554688 12.824219 C 49.734375 12.867188 49.886719 12.820312 50.007812 12.679688 C 50.058594 12.617188 50.101562 12.550781 50.132812 12.476562 C 50.445312 11.847656 50.757812 11.214844 51.070312 10.585938 C 51.183594 10.359375 51.300781 10.132812 51.398438 9.898438 C 51.53125 9.59375 51.460938 9.394531 51.222656 9.261719 C 51.175781 9.234375 51.136719 9.199219 51.089844 9.175781 C 50.703125 8.964844 50.457031 8.636719 50.3125 8.234375 C 50.1875 7.902344 50.066406 7.570312 49.898438 7.257812 L 49.921875 7.257812 L 49.949219 7.269531 L 49.933594 7.246094 C 49.933594 7.105469 49.894531 6.96875 49.859375 6.832031 C 49.703125 6.234375 49.542969 5.636719 49.382812 5.039062 C 49.292969 4.703125 49.207031 4.371094 49.117188 4.035156 C 49.019531 3.664062 48.921875 3.289062 48.820312 2.917969 C 48.804688 2.875 48.8125 2.839844 48.84375 2.808594 C 49.226562 2.832031 49.597656 2.914062 49.972656 2.996094 C 52.042969 3.417969 53.910156 4.273438 55.582031 5.558594 C 55.738281 5.675781 55.738281 5.679688 55.625 5.84375 C 54.882812 6.917969 54.140625 7.992188 53.394531 9.066406 C 53.347656 9.132812 53.324219 9.183594 53.386719 9.257812 C 53.527344 9.425781 53.617188 9.621094 53.648438 9.835938 C 53.664062 9.929688 53.699219 9.988281 53.792969 10.03125 C 54.507812 10.359375 54.683594 11.210938 54.488281 11.734375 C 54.382812 12.003906 54.261719 12.265625 54.128906 12.519531 C 53.945312 12.882812 53.761719 13.25 53.578125 13.613281 C 53.503906 13.757812 53.503906 13.761719 53.640625 13.851562 C 54.023438 14.101562 54.378906 14.382812 54.710938 14.699219 C 55.550781 15.519531 56.042969 16.519531 56.242188 17.667969 C 56.421875 18.6875 56.394531 19.707031 56.171875 20.71875 C 55.820312 22.332031 54.953125 23.613281 53.644531 24.613281 C 53.472656 24.742188 53.292969 24.859375 53.117188 24.984375 C 53.058594 25.023438 53 25.074219 52.925781 25.085938 C 52.855469 25.042969 52.808594 25.101562 52.761719 25.128906 C 52.398438 25.351562 52.011719 25.515625 51.621094 25.671875 C 51.523438 25.710938 51.425781 25.753906 51.3125 25.753906 C 51.207031 25.417969 51.121094 25.082031 51.039062 24.746094 C 50.871094 24.082031 50.683594 23.417969 50.507812 22.757812 C 50.289062 21.925781 50.042969 21.101562 49.84375 20.265625 C 49.800781 20.085938 49.78125 19.898438 49.671875 19.742188 C 49.664062 19.714844 49.65625 19.691406 49.652344 19.664062 C 49.597656 19.035156 49.429688 18.445312 49.089844 17.90625 C 48.488281 16.941406 47.621094 16.363281 46.507812 16.152344 C 45.800781 16.015625 45.105469 16.113281 44.4375 16.390625 C 44.117188 16.523438 43.789062 16.546875 43.449219 16.5 C 43.273438 16.476562 43.113281 16.417969 42.945312 16.367188 C 42.722656 16.292969 42.574219 16.34375 42.441406 16.539062 C 42.382812 16.621094 42.332031 16.707031 42.292969 16.800781 C 41.90625 17.625 41.523438 18.449219 41.144531 19.277344 C 41.019531 19.546875 41.09375 19.785156 41.347656 19.953125 C 41.488281 20.042969 41.632812 20.128906 41.765625 20.230469 C 41.949219 20.363281 42.085938 20.535156 42.167969 20.746094 C 42.257812 20.96875 42.332031 21.199219 42.414062 21.421875 C 42.386719 21.457031 42.382812 21.496094 42.398438 21.535156 C 42.484375 21.792969 42.546875 22.058594 42.617188 22.324219 C 42.769531 22.914062 42.933594 23.503906 43.09375 24.09375 C 43.265625 24.722656 43.429688 25.351562 43.609375 25.976562 C 43.640625 26.09375 43.601562 26.128906 43.511719 26.160156 Z M 52.710938 10.140625 C 52.707031 9.941406 52.628906 9.800781 52.46875 9.714844 C 52.304688 9.628906 52.15625 9.652344 52.011719 9.753906 C 51.9375 9.804688 51.902344 9.882812 51.863281 9.960938 C 51.46875 10.765625 51.074219 11.570312 50.679688 12.375 C 50.589844 12.5625 50.496094 12.746094 50.410156 12.9375 C 50.300781 13.183594 50.390625 13.417969 50.628906 13.519531 C 50.851562 13.621094 51.074219 13.542969 51.1875 13.320312 C 51.351562 12.992188 51.511719 12.660156 51.675781 12.332031 L 52.652344 10.351562 C 52.683594 10.277344 52.714844 10.207031 52.710938 10.140625 Z M 39.820312 19.09375 C 39.824219 19.292969 39.929688 19.445312 40.109375 19.511719 C 40.289062 19.578125 40.457031 19.527344 40.589844 19.359375 C 40.644531 19.289062 40.683594 19.214844 40.71875 19.132812 C 41.0625 18.351562 41.441406 17.582031 41.804688 16.808594 C 41.894531 16.621094 41.984375 16.433594 42.0625 16.242188 C 42.105469 16.136719 42.109375 16.035156 42.074219 15.929688 C 42.035156 15.824219 41.964844 15.742188 41.863281 15.691406 C 41.671875 15.59375 41.429688 15.660156 41.300781 15.855469 C 41.257812 15.929688 41.21875 16.007812 41.183594 16.085938 C 41.011719 16.449219 40.839844 16.8125 40.667969 17.175781 C 40.410156 17.726562 40.148438 18.273438 39.886719 18.824219 C 39.84375 18.910156 39.824219 19 39.820312 19.09375 Z M 52.277344 13.53125 C 52.476562 13.539062 52.597656 13.429688 52.679688 13.257812 C 52.960938 12.691406 53.238281 12.128906 53.523438 11.566406 C 53.582031 11.457031 53.605469 11.34375 53.601562 11.21875 C 53.582031 10.980469 53.417969 10.828125 53.179688 10.824219 C 52.980469 10.824219 52.851562 10.921875 52.769531 11.09375 C 52.621094 11.394531 52.480469 11.699219 52.324219 11.996094 C 52.171875 12.285156 52.03125 12.582031 51.898438 12.882812 C 51.75 13.210938 51.9375 13.527344 52.277344 13.53125 Z M 40.621094 16.128906 C 40.617188 15.964844 40.5625 15.828125 40.410156 15.742188 C 40.171875 15.601562 39.917969 15.695312 39.789062 15.972656 C 39.535156 16.503906 39.28125 17.035156 39.027344 17.570312 C 38.976562 17.683594 38.921875 17.796875 38.898438 17.925781 C 38.871094 18.109375 38.9375 18.257812 39.09375 18.351562 C 39.332031 18.492188 39.589844 18.417969 39.714844 18.160156 C 40.003906 17.5625 40.28125 16.960938 40.5625 16.363281 C 40.601562 16.289062 40.621094 16.210938 40.621094 16.128906 Z M 40.621094 16.128906 " fill-opacity="1" fill-rule="nonzero"/></g><path fill="#fccd06" d="M 43.511719 26.160156 C 43.601562 26.132812 43.640625 26.09375 43.609375 25.976562 C 43.429688 25.351562 43.265625 24.71875 43.09375 24.09375 C 42.933594 23.503906 42.769531 22.914062 42.613281 22.324219 C 42.546875 22.058594 42.484375 21.792969 42.398438 21.535156 C 42.378906 21.496094 42.386719 21.457031 42.414062 21.421875 C 42.441406 21.46875 42.46875 21.515625 42.492188 21.5625 C 42.863281 22.242188 43.375 22.785156 44.0625 23.15625 C 44.863281 23.59375 45.714844 23.742188 46.609375 23.558594 C 47.875 23.296875 48.789062 22.578125 49.335938 21.402344 C 49.507812 21.035156 49.59375 20.644531 49.652344 20.25 C 49.683594 20.226562 49.683594 20.199219 49.65625 20.167969 L 49.671875 19.742188 C 49.777344 19.902344 49.800781 20.089844 49.839844 20.265625 C 50.039062 21.101562 50.289062 21.925781 50.507812 22.757812 C 50.683594 23.421875 50.871094 24.082031 51.035156 24.746094 C 51.121094 25.082031 51.203125 25.417969 51.3125 25.753906 C 51.425781 25.753906 49.71875 26.304688 48.613281 26.417969 C 46.976562 26.589844 45.34375 26.5 43.722656 26.21875 C 43.648438 26.210938 43.578125 26.191406 43.511719 26.160156 Z M 43.511719 26.160156 " fill-opacity="1" fill-rule="nonzero"/><g clip-path="url(#ea5e8befb2)"><path fill="#fccd06" d="M 42.855469 9.304688 C 42.832031 9.308594 42.8125 9.390625 42.792969 9.324219 C 42.605469 8.648438 42.425781 7.972656 42.25 7.296875 C 42.066406 6.601562 41.886719 5.90625 41.699219 5.210938 C 41.574219 4.742188 41.445312 4.273438 41.320312 3.804688 C 41.304688 3.753906 41.296875 3.699219 41.285156 3.648438 C 41.71875 3.421875 42.179688 3.257812 42.648438 3.113281 C 43.582031 2.820312 44.539062 2.683594 45.515625 2.636719 C 46.519531 2.59375 47.527344 2.613281 48.523438 2.75 C 48.628906 2.761719 48.734375 2.785156 48.839844 2.804688 C 48.8125 2.839844 48.804688 2.875 48.816406 2.917969 C 48.917969 3.289062 49.015625 3.664062 49.113281 4.035156 C 49.203125 4.371094 49.292969 4.703125 49.378906 5.039062 C 49.539062 5.636719 49.699219 6.234375 49.859375 6.832031 C 49.894531 6.96875 49.929688 7.101562 49.929688 7.246094 L 49.921875 7.253906 L 49.894531 7.257812 C 49.867188 7.214844 49.832031 7.171875 49.800781 7.128906 C 49.132812 6.179688 48.234375 5.613281 47.070312 5.472656 C 45.5 5.28125 43.929688 6.140625 43.257812 7.570312 C 43.039062 8.03125 42.90625 8.519531 42.863281 9.03125 C 42.8125 9.085938 42.820312 9.144531 42.851562 9.203125 Z M 42.855469 9.304688 " fill-opacity="1" fill-rule="nonzero"/></g><path fill="#fccd06" d="M 42.855469 9.304688 L 42.855469 9.207031 C 42.875 9.148438 42.878906 9.09375 42.863281 9.035156 C 42.910156 8.523438 43.039062 8.035156 43.257812 7.570312 C 43.933594 6.140625 45.5 5.28125 47.070312 5.472656 C 48.234375 5.613281 49.132812 6.183594 49.800781 7.128906 C 49.832031 7.171875 49.863281 7.214844 49.894531 7.257812 C 50.066406 7.570312 50.1875 7.902344 50.308594 8.234375 C 50.453125 8.636719 50.703125 8.964844 51.085938 9.175781 C 51.132812 9.199219 51.171875 9.234375 51.21875 9.261719 C 51.457031 9.394531 51.53125 9.59375 51.398438 9.898438 C 51.296875 10.132812 51.179688 10.359375 51.066406 10.585938 C 50.753906 11.21875 50.441406 11.847656 50.128906 12.476562 C 50.097656 12.550781 50.054688 12.617188 50.003906 12.679688 C 49.882812 12.824219 49.730469 12.867188 49.550781 12.824219 C 49.492188 12.808594 49.4375 12.789062 49.382812 12.761719 C 48.957031 12.5625 48.53125 12.558594 48.09375 12.726562 C 47.632812 12.90625 47.152344 12.996094 46.65625 12.996094 C 45.621094 12.984375 44.738281 12.601562 43.996094 11.886719 C 43.3125 11.222656 42.957031 10.40625 42.871094 9.464844 C 42.867188 9.410156 42.859375 9.359375 42.855469 9.304688 Z M 47.507812 12.046875 C 45.628906 11.789062 44.378906 10.765625 43.6875 8.984375 C 43.554688 11.203125 45.84375 12.679688 47.507812 12.046875 Z M 47.507812 12.046875 " fill-opacity="1" fill-rule="nonzero"/><path fill="#fccd06" d="M 49.652344 20.25 C 49.59375 20.644531 49.507812 21.035156 49.335938 21.402344 C 48.789062 22.574219 47.875 23.296875 46.609375 23.558594 C 45.714844 23.742188 44.863281 23.589844 44.0625 23.15625 C 43.375 22.785156 42.863281 22.242188 42.492188 21.5625 C 42.46875 21.515625 42.441406 21.46875 42.414062 21.421875 C 42.332031 21.195312 42.257812 20.96875 42.167969 20.746094 C 42.085938 20.53125 41.949219 20.359375 41.765625 20.226562 C 41.632812 20.128906 41.484375 20.042969 41.347656 19.949219 C 41.09375 19.785156 41.019531 19.542969 41.144531 19.273438 C 41.523438 18.449219 41.90625 17.621094 42.292969 16.796875 C 42.332031 16.707031 42.382812 16.617188 42.4375 16.535156 C 42.570312 16.34375 42.722656 16.292969 42.945312 16.363281 C 43.113281 16.417969 43.273438 16.476562 43.449219 16.5 C 43.789062 16.542969 44.117188 16.519531 44.4375 16.386719 C 45.105469 16.113281 45.796875 16.015625 46.507812 16.148438 C 47.621094 16.363281 48.488281 16.9375 49.089844 17.902344 C 49.429688 18.441406 49.597656 19.035156 49.652344 19.664062 C 49.65625 19.6875 49.664062 19.714844 49.671875 19.738281 L 49.660156 20.164062 C 49.640625 20.191406 49.636719 20.21875 49.652344 20.25 Z M 48.835938 20.019531 C 48.875 20 48.863281 19.980469 48.863281 19.960938 C 48.851562 19.078125 48.542969 18.3125 47.882812 17.710938 C 47.195312 17.082031 46.382812 16.796875 45.441406 16.945312 C 45.308594 16.960938 45.179688 17 45.054688 17.054688 C 46.933594 17.296875 48.128906 18.355469 48.835938 20.019531 Z M 48.835938 20.019531 " fill-opacity="1" fill-rule="nonzero"/><path fill="#fccd06" d="M 39.820312 19.09375 C 39.824219 19 39.84375 18.910156 39.886719 18.824219 C 40.148438 18.273438 40.410156 17.726562 40.671875 17.175781 C 40.84375 16.8125 41.011719 16.449219 41.183594 16.085938 C 41.21875 16.007812 41.257812 15.929688 41.300781 15.855469 C 41.429688 15.660156 41.671875 15.59375 41.867188 15.691406 C 41.964844 15.746094 42.035156 15.824219 42.074219 15.929688 C 42.109375 16.035156 42.109375 16.140625 42.0625 16.242188 C 41.984375 16.433594 41.894531 16.621094 41.804688 16.808594 C 41.441406 17.582031 41.0625 18.351562 40.71875 19.132812 C 40.6875 19.214844 40.644531 19.289062 40.589844 19.359375 C 40.457031 19.527344 40.292969 19.578125 40.109375 19.511719 C 39.925781 19.445312 39.824219 19.292969 39.820312 19.09375 Z M 39.820312 19.09375 " fill-opacity="1" fill-rule="nonzero"/><path fill="#079af7" d="M 42.867188 9.035156 C 42.878906 9.09375 42.875 9.148438 42.855469 9.207031 C 42.820312 9.148438 42.816406 9.089844 42.867188 9.035156 Z M 42.867188 9.035156 " fill-opacity="1" fill-rule="nonzero"/><path fill="#020202" d="M 47.507812 12.046875 C 45.84375 12.679688 43.554688 11.203125 43.6875 8.984375 C 44.378906 10.765625 45.628906 11.789062 47.507812 12.046875 Z M 47.507812 12.046875 " fill-opacity="1" fill-rule="nonzero"/><path fill="#020202" d="M 48.835938 20.019531 C 48.128906 18.355469 46.933594 17.296875 45.054688 17.054688 C 45.179688 17 45.308594 16.960938 45.441406 16.945312 C 46.382812 16.796875 47.195312 17.082031 47.882812 17.710938 C 48.542969 18.3125 48.851562 19.078125 48.863281 19.960938 C 48.863281 19.980469 48.875 20 48.835938 20.019531 Z M 48.835938 20.019531 " fill-opacity="1" fill-rule="nonzero"/><g transform="matrix(1, 0, 0, 1, 55, 22)"><g clip-path="url(#de62712430)"><g fill="#fcfcfc" fill-opacity="1"><g transform="translate(0.838585, 3.087765)"><g><path d="M 0.9375 0.03125 C 0.695312 0.03125 0.507812 -0.03125 0.375 -0.15625 C 0.25 -0.289062 0.1875 -0.484375 0.1875 -0.734375 L 0.1875 -1.65625 L 0.5625 -1.65625 L 0.5625 -0.75 C 0.5625 -0.445312 0.6875 -0.296875 0.9375 -0.296875 C 1.0625 -0.296875 1.15625 -0.332031 1.21875 -0.40625 C 1.28125 -0.476562 1.3125 -0.59375 1.3125 -0.75 L 1.3125 -1.65625 L 1.6875 -1.65625 L 1.6875 -0.734375 C 1.6875 -0.484375 1.617188 -0.289062 1.484375 -0.15625 C 1.359375 -0.03125 1.175781 0.03125 0.9375 0.03125 Z M 0.9375 0.03125 "/></g></g></g><g fill="#fcfcfc" fill-opacity="1"><g transform="translate(3.756056, 3.087765)"><g><path d="M 1.296875 -0.359375 L 0.515625 -0.359375 L 0.375 0 L -0.015625 0 L 0.71875 -1.65625 L 1.09375 -1.65625 L 1.84375 0 L 1.4375 0 Z M 1.171875 -0.640625 L 0.90625 -1.28125 L 0.640625 -0.640625 Z M 1.171875 -0.640625 "/></g></g></g><g fill="#fcfcfc" fill-opacity="1"><g transform="translate(6.621301, 3.087765)"><g><path d="M 1.71875 -1.65625 L 1.71875 0 L 1.40625 0 L 0.578125 -1.015625 L 0.578125 0 L 0.203125 0 L 0.203125 -1.65625 L 0.515625 -1.65625 L 1.34375 -0.65625 L 1.34375 -1.65625 Z M 1.71875 -1.65625 "/></g></g></g><g fill="#fcfcfc" fill-opacity="1"><g transform="translate(9.586251, 3.087765)"><g><path d="M 1.328125 -0.859375 L 1.671875 -0.859375 L 1.671875 -0.1875 C 1.578125 -0.113281 1.472656 -0.0546875 1.359375 -0.015625 C 1.242188 0.015625 1.125 0.03125 1 0.03125 C 0.820312 0.03125 0.664062 -0.00390625 0.53125 -0.078125 C 0.394531 -0.148438 0.285156 -0.25 0.203125 -0.375 C 0.128906 -0.507812 0.09375 -0.660156 0.09375 -0.828125 C 0.09375 -0.992188 0.128906 -1.140625 0.203125 -1.265625 C 0.285156 -1.398438 0.394531 -1.503906 0.53125 -1.578125 C 0.675781 -1.648438 0.832031 -1.6875 1 -1.6875 C 1.144531 -1.6875 1.273438 -1.660156 1.390625 -1.609375 C 1.515625 -1.566406 1.617188 -1.5 1.703125 -1.40625 L 1.453125 -1.171875 C 1.335938 -1.296875 1.195312 -1.359375 1.03125 -1.359375 C 0.914062 -1.359375 0.816406 -1.335938 0.734375 -1.296875 C 0.660156 -1.253906 0.597656 -1.191406 0.546875 -1.109375 C 0.503906 -1.023438 0.484375 -0.929688 0.484375 -0.828125 C 0.484375 -0.722656 0.503906 -0.628906 0.546875 -0.546875 C 0.597656 -0.472656 0.660156 -0.410156 0.734375 -0.359375 C 0.816406 -0.316406 0.910156 -0.296875 1.015625 -0.296875 C 1.128906 -0.296875 1.234375 -0.320312 1.328125 -0.375 Z M 1.328125 -0.859375 "/></g></g></g><g fill="#fcfcfc" fill-opacity="1"><g transform="translate(12.463364, 3.087765)"><g><path d="M 0.203125 -1.65625 L 0.578125 -1.65625 L 0.578125 0 L 0.203125 0 Z M 0.203125 -1.65625 "/></g></g></g><g fill="#fcfcfc" fill-opacity="1"><g transform="translate(14.288859, 3.087765)"><g><path d="M 1.71875 -1.65625 L 1.71875 0 L 1.40625 0 L 0.578125 -1.015625 L 0.578125 0 L 0.203125 0 L 0.203125 -1.65625 L 0.515625 -1.65625 L 1.34375 -0.65625 L 1.34375 -1.65625 Z M 1.71875 -1.65625 "/></g></g></g><g fill="#fcfcfc" fill-opacity="1"><g transform="translate(17.253808, 3.087765)"><g/></g></g><g fill="#fcfcfc" fill-opacity="1"><g transform="translate(18.972478, 3.087765)"><g><path d="M 2.703125 -1.65625 L 2.171875 0 L 1.75 0 L 1.390625 -1.125 L 1.015625 0 L 0.59375 0 L 0.046875 -1.65625 L 0.453125 -1.65625 L 0.828125 -0.5 L 1.21875 -1.65625 L 1.578125 -1.65625 L 1.953125 -0.484375 L 2.34375 -1.65625 Z M 2.703125 -1.65625 "/></g></g></g><g fill="#fcfcfc" fill-opacity="1"><g transform="translate(22.780148, 3.087765)"><g><path d="M 1.296875 -0.359375 L 0.515625 -0.359375 L 0.375 0 L -0.015625 0 L 0.71875 -1.65625 L 1.09375 -1.65625 L 1.84375 0 L 1.4375 0 Z M 1.171875 -0.640625 L 0.90625 -1.28125 L 0.640625 -0.640625 Z M 1.171875 -0.640625 "/></g></g></g><g fill="#fcfcfc" fill-opacity="1"><g transform="translate(25.645394, 3.087765)"><g><path d="M 0.796875 -0.65625 L 0.578125 -0.421875 L 0.578125 0 L 0.203125 0 L 0.203125 -1.65625 L 0.578125 -1.65625 L 0.578125 -0.890625 L 1.3125 -1.65625 L 1.75 -1.65625 L 1.046875 -0.921875 L 1.78125 0 L 1.328125 0 Z M 0.796875 -0.65625 "/></g></g></g><g fill="#fcfcfc" fill-opacity="1"><g transform="translate(28.448919, 3.087765)"><g><path d="M 0.546875 -1.34375 L 0.015625 -1.34375 L 0.015625 -1.65625 L 1.453125 -1.65625 L 1.453125 -1.34375 L 0.921875 -1.34375 L 0.921875 0 L 0.546875 0 Z M 0.546875 -1.34375 "/></g></g></g><g fill="#fcfcfc" fill-opacity="1"><g transform="translate(30.962832, 3.087765)"><g><path d="M 0.9375 0.03125 C 0.695312 0.03125 0.507812 -0.03125 0.375 -0.15625 C 0.25 -0.289062 0.1875 -0.484375 0.1875 -0.734375 L 0.1875 -1.65625 L 0.5625 -1.65625 L 0.5625 -0.75 C 0.5625 -0.445312 0.6875 -0.296875 0.9375 -0.296875 C 1.0625 -0.296875 1.15625 -0.332031 1.21875 -0.40625 C 1.28125 -0.476562 1.3125 -0.59375 1.3125 -0.75 L 1.3125 -1.65625 L 1.6875 -1.65625 L 1.6875 -0.734375 C 1.6875 -0.484375 1.617188 -0.289062 1.484375 -0.15625 C 1.359375 -0.03125 1.175781 0.03125 0.9375 0.03125 Z M 0.9375 0.03125 "/></g></g></g><g fill="#fcfcfc" fill-opacity="1"><g transform="translate(33.880303, 3.087765)"><g/></g></g><g fill="#fcfcfc" fill-opacity="1"><g transform="translate(35.598973, 3.087765)"><g><path d="M 0.203125 -1.65625 L 0.578125 -1.65625 L 0.578125 -0.3125 L 1.421875 -0.3125 L 1.421875 0 L 0.203125 0 Z M 0.203125 -1.65625 "/></g></g></g><g fill="#fcfcfc" fill-opacity="1"><g transform="translate(38.079652, 3.087765)"><g><path d="M 1 0.03125 C 0.832031 0.03125 0.675781 -0.00390625 0.53125 -0.078125 C 0.394531 -0.148438 0.285156 -0.253906 0.203125 -0.390625 C 0.128906 -0.523438 0.09375 -0.671875 0.09375 -0.828125 C 0.09375 -0.992188 0.128906 -1.140625 0.203125 -1.265625 C 0.285156 -1.398438 0.394531 -1.503906 0.53125 -1.578125 C 0.675781 -1.648438 0.832031 -1.6875 1 -1.6875 C 1.175781 -1.6875 1.332031 -1.648438 1.46875 -1.578125 C 1.601562 -1.503906 1.707031 -1.398438 1.78125 -1.265625 C 1.863281 -1.140625 1.90625 -0.992188 1.90625 -0.828125 C 1.90625 -0.671875 1.863281 -0.523438 1.78125 -0.390625 C 1.707031 -0.253906 1.601562 -0.148438 1.46875 -0.078125 C 1.332031 -0.00390625 1.175781 0.03125 1 0.03125 Z M 1 -0.296875 C 1.101562 -0.296875 1.191406 -0.316406 1.265625 -0.359375 C 1.347656 -0.410156 1.410156 -0.472656 1.453125 -0.546875 C 1.492188 -0.628906 1.515625 -0.722656 1.515625 -0.828125 C 1.515625 -0.929688 1.492188 -1.023438 1.453125 -1.109375 C 1.410156 -1.191406 1.347656 -1.253906 1.265625 -1.296875 C 1.191406 -1.335938 1.101562 -1.359375 1 -1.359375 C 0.90625 -1.359375 0.816406 -1.335938 0.734375 -1.296875 C 0.660156 -1.253906 0.597656 -1.191406 0.546875 -1.109375 C 0.503906 -1.023438 0.484375 -0.929688 0.484375 -0.828125 C 0.484375 -0.722656 0.503906 -0.628906 0.546875 -0.546875 C 0.597656 -0.472656 0.660156 -0.410156 0.734375 -0.359375 C 0.816406 -0.316406 0.90625 -0.296875 1 -0.296875 Z M 1 -0.296875 "/></g></g></g></g></g></svg>