<svg xmlns="http://www.w3.org/2000/svg" xmlns:xlink="http://www.w3.org/1999/xlink" width="150" zoomAndPan="magnify" viewBox="0 0 112.5 30.000001" height="40" preserveAspectRatio="xMidYMid meet" version="1.0"><defs><g/><clipPath id="1933c81e01"><path d="M 9 0 L 100 0 L 100 29.03125 L 9 29.03125 Z M 9 0 " clip-rule="nonzero"/></clipPath><clipPath id="423ca5e794"><path d="M 0.00390625 1 L 16 1 L 16 23 L 0.00390625 23 Z M 0.00390625 1 " clip-rule="nonzero"/></clipPath><clipPath id="adfb33b27d"><path d="M 0.00390625 1 L 16 1 L 16 23 L 0.00390625 23 Z M 0.00390625 1 " clip-rule="nonzero"/></clipPath><clipPath id="f61de46580"><rect x="0" width="91" y="0" height="30"/></clipPath><clipPath id="1bf37511bc"><path d="M 0.132812 1 L 3 1 L 3 4 L 0.132812 4 Z M 0.132812 1 " clip-rule="nonzero"/></clipPath><clipPath id="183898b30d"><rect x="0" width="48" y="0" height="5"/></clipPath><clipPath id="cbe07e1a95"><path d="M 37.59375 0.574219 L 56.464844 0.574219 L 56.464844 28.15625 L 37.59375 28.15625 Z M 37.59375 0.574219 " clip-rule="nonzero"/></clipPath><clipPath id="15411e5d4c"><path d="M 0.921875 0.574219 L 19.464844 0.574219 L 19.464844 28.15625 L 0.921875 28.15625 Z M 0.921875 0.574219 " clip-rule="nonzero"/></clipPath><clipPath id="ba52fbcdb1"><rect x="0" width="20" y="0" height="29"/></clipPath></defs><g clip-path="url(#1933c81e01)"><g transform="matrix(1, 0, 0, 1, 9, 0.000000000000005692)"><g clip-path="url(#f61de46580)"><g clip-path="url(#423ca5e794)"><g fill="#000000" fill-opacity="0.4"><g transform="translate(0.822492, 21.978055)"><g><path d="M 6.75 0.46875 C 5.175781 0.46875 3.75 0.210938 2.46875 -0.296875 C 1.1875 -0.804688 0.132812 -1.550781 -0.6875 -2.53125 L 2.96875 -6.859375 C 3.507812 -6.191406 4.039062 -5.691406 4.5625 -5.359375 C 5.082031 -5.035156 5.617188 -4.875 6.171875 -4.875 C 6.878906 -4.875 7.421875 -5.082031 7.796875 -5.5 C 8.171875 -5.925781 8.359375 -6.554688 8.359375 -7.390625 L 8.359375 -15.0625 L 1.5 -15.0625 L 1.5 -20.1875 L 15.078125 -20.1875 L 15.078125 -7.78125 C 15.078125 -5.03125 14.367188 -2.96875 12.953125 -1.59375 C 11.546875 -0.21875 9.476562 0.46875 6.75 0.46875 Z M 6.75 0.46875 "/></g></g></g></g><g fill="#000000" fill-opacity="0.4"><g transform="translate(13.920324, 21.978055)"><g><path d="M 8.515625 -16.0625 C 11.273438 -16.0625 13.382812 -15.441406 14.84375 -14.203125 C 16.3125 -12.960938 17.046875 -11.054688 17.046875 -8.484375 L 17.046875 0 L 10.984375 0 L 10.984375 -2.078125 C 10.234375 -0.503906 8.742188 0.28125 6.515625 0.28125 C 5.265625 0.28125 4.203125 0.0664062 3.328125 -0.359375 C 2.453125 -0.796875 1.785156 -1.382812 1.328125 -2.125 C 0.878906 -2.863281 0.65625 -3.691406 0.65625 -4.609375 C 0.65625 -6.171875 1.25 -7.351562 2.4375 -8.15625 C 3.632812 -8.96875 5.445312 -9.375 7.875 -9.375 L 10.5 -9.375 C 10.289062 -10.601562 9.300781 -11.21875 7.53125 -11.21875 C 6.820312 -11.21875 6.097656 -11.109375 5.359375 -10.890625 C 4.628906 -10.671875 4.003906 -10.367188 3.484375 -9.984375 L 1.40625 -14.28125 C 2.3125 -14.832031 3.40625 -15.265625 4.6875 -15.578125 C 5.96875 -15.898438 7.242188 -16.0625 8.515625 -16.0625 Z M 8.484375 -3.640625 C 8.941406 -3.640625 9.351562 -3.765625 9.71875 -4.015625 C 10.082031 -4.265625 10.351562 -4.640625 10.53125 -5.140625 L 10.53125 -6.234375 L 8.90625 -6.234375 C 7.582031 -6.234375 6.921875 -5.789062 6.921875 -4.90625 C 6.921875 -4.539062 7.0625 -4.238281 7.34375 -4 C 7.625 -3.757812 8.003906 -3.640625 8.484375 -3.640625 Z M 8.484375 -3.640625 "/></g></g></g><g fill="#000000" fill-opacity="0.4"><g transform="translate(28.896828, 21.978055)"><g/></g></g><g fill="#000000" fill-opacity="0.4"><g transform="translate(34.089666, 21.978055)"><g/></g></g><g fill="#000000" fill-opacity="0.4"><g transform="translate(39.282505, 21.978055)"><g/></g></g><g fill="#000000" fill-opacity="0.4"><g transform="translate(44.476262, 21.978055)"><g><path d="M 7.640625 -14.078125 C 8.796875 -15.398438 10.5 -16.0625 12.75 -16.0625 L 12.75 -10.296875 C 12.226562 -10.367188 11.75 -10.40625 11.3125 -10.40625 C 9.070312 -10.40625 7.953125 -9.273438 7.953125 -7.015625 L 7.953125 0 L 1.4375 0 L 1.4375 -15.78125 L 7.640625 -15.78125 Z M 7.640625 -14.078125 "/></g></g></g><g fill="#000000" fill-opacity="0.4"><g transform="translate(54.169752, 21.978055)"><g><path d="M 18.6875 -15.78125 L 18.6875 0 L 12.484375 0 L 12.484375 -1.5 C 11.910156 -0.90625 11.238281 -0.457031 10.46875 -0.15625 C 9.695312 0.132812 8.878906 0.28125 8.015625 0.28125 C 6.015625 0.28125 4.410156 -0.328125 3.203125 -1.546875 C 1.992188 -2.765625 1.390625 -4.601562 1.390625 -7.0625 L 1.390625 -15.78125 L 7.90625 -15.78125 L 7.90625 -8.1875 C 7.90625 -7.113281 8.078125 -6.34375 8.421875 -5.875 C 8.765625 -5.414062 9.273438 -5.1875 9.953125 -5.1875 C 10.585938 -5.1875 11.113281 -5.441406 11.53125 -5.953125 C 11.957031 -6.460938 12.171875 -7.265625 12.171875 -8.359375 L 12.171875 -15.78125 Z M 18.6875 -15.78125 "/></g></g></g><g fill="#000000" fill-opacity="0.4"><g transform="translate(70.845025, 21.978055)"><g><path d="M 18.890625 -21.40625 L 18.890625 0 L 12.6875 0 L 12.6875 -1.296875 C 11.75 -0.242188 10.304688 0.28125 8.359375 0.28125 C 6.972656 0.28125 5.695312 -0.046875 4.53125 -0.703125 C 3.375 -1.367188 2.453125 -2.328125 1.765625 -3.578125 C 1.085938 -4.828125 0.75 -6.269531 0.75 -7.90625 C 0.75 -9.539062 1.085938 -10.976562 1.765625 -12.21875 C 2.453125 -13.457031 3.375 -14.40625 4.53125 -15.0625 C 5.695312 -15.726562 6.972656 -16.0625 8.359375 -16.0625 C 10.109375 -16.0625 11.445312 -15.609375 12.375 -14.703125 L 12.375 -21.40625 Z M 9.921875 -4.78125 C 10.671875 -4.78125 11.285156 -5.054688 11.765625 -5.609375 C 12.242188 -6.160156 12.484375 -6.925781 12.484375 -7.90625 C 12.484375 -8.882812 12.242188 -9.640625 11.765625 -10.171875 C 11.285156 -10.710938 10.671875 -10.984375 9.921875 -10.984375 C 9.171875 -10.984375 8.554688 -10.710938 8.078125 -10.171875 C 7.597656 -9.640625 7.359375 -8.882812 7.359375 -7.90625 C 7.359375 -6.925781 7.597656 -6.160156 8.078125 -5.609375 C 8.554688 -5.054688 9.171875 -4.78125 9.921875 -4.78125 Z M 9.921875 -4.78125 "/></g></g></g><g clip-path="url(#adfb33b27d)"><g fill="#ffb400" fill-opacity="1"><g transform="translate(0.822492, 21.978055)"><g><path d="M 6.75 0.46875 C 5.175781 0.46875 3.75 0.210938 2.46875 -0.296875 C 1.1875 -0.804688 0.132812 -1.550781 -0.6875 -2.53125 L 2.96875 -6.859375 C 3.507812 -6.191406 4.039062 -5.691406 4.5625 -5.359375 C 5.082031 -5.035156 5.617188 -4.875 6.171875 -4.875 C 6.878906 -4.875 7.421875 -5.082031 7.796875 -5.5 C 8.171875 -5.925781 8.359375 -6.554688 8.359375 -7.390625 L 8.359375 -15.0625 L 1.5 -15.0625 L 1.5 -20.1875 L 15.078125 -20.1875 L 15.078125 -7.78125 C 15.078125 -5.03125 14.367188 -2.96875 12.953125 -1.59375 C 11.546875 -0.21875 9.476562 0.46875 6.75 0.46875 Z M 6.75 0.46875 "/></g></g></g></g><g fill="#ffb400" fill-opacity="1"><g transform="translate(13.920324, 21.978055)"><g><path d="M 8.515625 -16.0625 C 11.273438 -16.0625 13.382812 -15.441406 14.84375 -14.203125 C 16.3125 -12.960938 17.046875 -11.054688 17.046875 -8.484375 L 17.046875 0 L 10.984375 0 L 10.984375 -2.078125 C 10.234375 -0.503906 8.742188 0.28125 6.515625 0.28125 C 5.265625 0.28125 4.203125 0.0664062 3.328125 -0.359375 C 2.453125 -0.796875 1.785156 -1.382812 1.328125 -2.125 C 0.878906 -2.863281 0.65625 -3.691406 0.65625 -4.609375 C 0.65625 -6.171875 1.25 -7.351562 2.4375 -8.15625 C 3.632812 -8.96875 5.445312 -9.375 7.875 -9.375 L 10.5 -9.375 C 10.289062 -10.601562 9.300781 -11.21875 7.53125 -11.21875 C 6.820312 -11.21875 6.097656 -11.109375 5.359375 -10.890625 C 4.628906 -10.671875 4.003906 -10.367188 3.484375 -9.984375 L 1.40625 -14.28125 C 2.3125 -14.832031 3.40625 -15.265625 4.6875 -15.578125 C 5.96875 -15.898438 7.242188 -16.0625 8.515625 -16.0625 Z M 8.484375 -3.640625 C 8.941406 -3.640625 9.351562 -3.765625 9.71875 -4.015625 C 10.082031 -4.265625 10.351562 -4.640625 10.53125 -5.140625 L 10.53125 -6.234375 L 8.90625 -6.234375 C 7.582031 -6.234375 6.921875 -5.789062 6.921875 -4.90625 C 6.921875 -4.539062 7.0625 -4.238281 7.34375 -4 C 7.625 -3.757812 8.003906 -3.640625 8.484375 -3.640625 Z M 8.484375 -3.640625 "/></g></g></g><g fill="#ffb400" fill-opacity="1"><g transform="translate(28.896828, 21.978055)"><g/></g></g><g fill="#ffb400" fill-opacity="1"><g transform="translate(34.089666, 21.978055)"><g/></g></g><g fill="#ffb400" fill-opacity="1"><g transform="translate(39.282505, 21.978055)"><g/></g></g><g fill="#ffb400" fill-opacity="1"><g transform="translate(44.476262, 21.978055)"><g><path d="M 7.640625 -14.078125 C 8.796875 -15.398438 10.5 -16.0625 12.75 -16.0625 L 12.75 -10.296875 C 12.226562 -10.367188 11.75 -10.40625 11.3125 -10.40625 C 9.070312 -10.40625 7.953125 -9.273438 7.953125 -7.015625 L 7.953125 0 L 1.4375 0 L 1.4375 -15.78125 L 7.640625 -15.78125 Z M 7.640625 -14.078125 "/></g></g></g><g fill="#ffb400" fill-opacity="1"><g transform="translate(54.169752, 21.978055)"><g><path d="M 18.6875 -15.78125 L 18.6875 0 L 12.484375 0 L 12.484375 -1.5 C 11.910156 -0.90625 11.238281 -0.457031 10.46875 -0.15625 C 9.695312 0.132812 8.878906 0.28125 8.015625 0.28125 C 6.015625 0.28125 4.410156 -0.328125 3.203125 -1.546875 C 1.992188 -2.765625 1.390625 -4.601562 1.390625 -7.0625 L 1.390625 -15.78125 L 7.90625 -15.78125 L 7.90625 -8.1875 C 7.90625 -7.113281 8.078125 -6.34375 8.421875 -5.875 C 8.765625 -5.414062 9.273438 -5.1875 9.953125 -5.1875 C 10.585938 -5.1875 11.113281 -5.441406 11.53125 -5.953125 C 11.957031 -6.460938 12.171875 -7.265625 12.171875 -8.359375 L 12.171875 -15.78125 Z M 18.6875 -15.78125 "/></g></g></g><g fill="#ffb400" fill-opacity="1"><g transform="translate(70.845025, 21.978055)"><g><path d="M 18.890625 -21.40625 L 18.890625 0 L 12.6875 0 L 12.6875 -1.296875 C 11.75 -0.242188 10.304688 0.28125 8.359375 0.28125 C 6.972656 0.28125 5.695312 -0.046875 4.53125 -0.703125 C 3.375 -1.367188 2.453125 -2.328125 1.765625 -3.578125 C 1.085938 -4.828125 0.75 -6.269531 0.75 -7.90625 C 0.75 -9.539062 1.085938 -10.976562 1.765625 -12.21875 C 2.453125 -13.457031 3.375 -14.40625 4.53125 -15.0625 C 5.695312 -15.726562 6.972656 -16.0625 8.359375 -16.0625 C 10.109375 -16.0625 11.445312 -15.609375 12.375 -14.703125 L 12.375 -21.40625 Z M 9.921875 -4.78125 C 10.671875 -4.78125 11.285156 -5.054688 11.765625 -5.609375 C 12.242188 -6.160156 12.484375 -6.925781 12.484375 -7.90625 C 12.484375 -8.882812 12.242188 -9.640625 11.765625 -10.171875 C 11.285156 -10.710938 10.671875 -10.984375 9.921875 -10.984375 C 9.171875 -10.984375 8.554688 -10.710938 8.078125 -10.171875 C 7.597656 -9.640625 7.359375 -8.882812 7.359375 -7.90625 C 7.359375 -6.925781 7.597656 -6.160156 8.078125 -5.609375 C 8.554688 -5.054688 9.171875 -4.78125 9.921875 -4.78125 Z M 9.921875 -4.78125 "/></g></g></g></g></g></g><g transform="matrix(1, 0, 0, 1, 53, 22)"><g clip-path="url(#183898b30d)"><g clip-path="url(#1bf37511bc)"><g fill="#ffffff" fill-opacity="1"><g transform="translate(0.322257, 3.378089)"><g><path d="M 0.9375 0.03125 C 0.695312 0.03125 0.507812 -0.03125 0.375 -0.15625 C 0.25 -0.289062 0.1875 -0.484375 0.1875 -0.734375 L 0.1875 -1.65625 L 0.5625 -1.65625 L 0.5625 -0.75 C 0.5625 -0.445312 0.6875 -0.296875 0.9375 -0.296875 C 1.0625 -0.296875 1.15625 -0.332031 1.21875 -0.40625 C 1.28125 -0.476562 1.3125 -0.59375 1.3125 -0.75 L 1.3125 -1.65625 L 1.6875 -1.65625 L 1.6875 -0.734375 C 1.6875 -0.484375 1.617188 -0.289062 1.484375 -0.15625 C 1.359375 -0.03125 1.175781 0.03125 0.9375 0.03125 Z M 0.9375 0.03125 "/></g></g></g></g><g fill="#ffffff" fill-opacity="1"><g transform="translate(3.667021, 3.378089)"><g><path d="M 1.296875 -0.359375 L 0.515625 -0.359375 L 0.375 0 L -0.015625 0 L 0.71875 -1.65625 L 1.09375 -1.65625 L 1.84375 0 L 1.4375 0 Z M 1.171875 -0.640625 L 0.90625 -1.28125 L 0.640625 -0.640625 Z M 1.171875 -0.640625 "/></g></g></g><g fill="#ffffff" fill-opacity="1"><g transform="translate(6.95956, 3.378089)"><g><path d="M 1.71875 -1.65625 L 1.71875 0 L 1.40625 0 L 0.578125 -1.015625 L 0.578125 0 L 0.203125 0 L 0.203125 -1.65625 L 0.515625 -1.65625 L 1.34375 -0.65625 L 1.34375 -1.65625 Z M 1.71875 -1.65625 "/></g></g></g><g fill="#ffffff" fill-opacity="1"><g transform="translate(10.351803, 3.378089)"><g><path d="M 1.328125 -0.859375 L 1.671875 -0.859375 L 1.671875 -0.1875 C 1.578125 -0.113281 1.472656 -0.0546875 1.359375 -0.015625 C 1.242188 0.015625 1.125 0.03125 1 0.03125 C 0.820312 0.03125 0.664062 -0.00390625 0.53125 -0.078125 C 0.394531 -0.148438 0.285156 -0.25 0.203125 -0.375 C 0.128906 -0.507812 0.09375 -0.660156 0.09375 -0.828125 C 0.09375 -0.992188 0.128906 -1.140625 0.203125 -1.265625 C 0.285156 -1.398438 0.394531 -1.503906 0.53125 -1.578125 C 0.675781 -1.648438 0.832031 -1.6875 1 -1.6875 C 1.144531 -1.6875 1.273438 -1.660156 1.390625 -1.609375 C 1.515625 -1.566406 1.617188 -1.5 1.703125 -1.40625 L 1.453125 -1.171875 C 1.335938 -1.296875 1.195312 -1.359375 1.03125 -1.359375 C 0.914062 -1.359375 0.816406 -1.335938 0.734375 -1.296875 C 0.660156 -1.253906 0.597656 -1.191406 0.546875 -1.109375 C 0.503906 -1.023438 0.484375 -0.929688 0.484375 -0.828125 C 0.484375 -0.722656 0.503906 -0.628906 0.546875 -0.546875 C 0.597656 -0.472656 0.660156 -0.410156 0.734375 -0.359375 C 0.816406 -0.316406 0.910156 -0.296875 1.015625 -0.296875 C 1.128906 -0.296875 1.234375 -0.320312 1.328125 -0.375 Z M 1.328125 -0.859375 "/></g></g></g><g fill="#ffffff" fill-opacity="1"><g transform="translate(13.65621, 3.378089)"><g><path d="M 0.203125 -1.65625 L 0.578125 -1.65625 L 0.578125 0 L 0.203125 0 Z M 0.203125 -1.65625 "/></g></g></g><g fill="#ffffff" fill-opacity="1"><g transform="translate(15.908998, 3.378089)"><g><path d="M 1.71875 -1.65625 L 1.71875 0 L 1.40625 0 L 0.578125 -1.015625 L 0.578125 0 L 0.203125 0 L 0.203125 -1.65625 L 0.515625 -1.65625 L 1.34375 -0.65625 L 1.34375 -1.65625 Z M 1.71875 -1.65625 "/></g></g></g><g fill="#ffffff" fill-opacity="1"><g transform="translate(19.30124, 3.378089)"><g/></g></g><g fill="#ffffff" fill-opacity="1"><g transform="translate(21.447203, 3.378089)"><g><path d="M 2.703125 -1.65625 L 2.171875 0 L 1.75 0 L 1.390625 -1.125 L 1.015625 0 L 0.59375 0 L 0.046875 -1.65625 L 0.453125 -1.65625 L 0.828125 -0.5 L 1.21875 -1.65625 L 1.578125 -1.65625 L 1.953125 -0.484375 L 2.34375 -1.65625 Z M 2.703125 -1.65625 "/></g></g></g><g fill="#ffffff" fill-opacity="1"><g transform="translate(25.682167, 3.378089)"><g><path d="M 1.296875 -0.359375 L 0.515625 -0.359375 L 0.375 0 L -0.015625 0 L 0.71875 -1.65625 L 1.09375 -1.65625 L 1.84375 0 L 1.4375 0 Z M 1.171875 -0.640625 L 0.90625 -1.28125 L 0.640625 -0.640625 Z M 1.171875 -0.640625 "/></g></g></g><g fill="#ffffff" fill-opacity="1"><g transform="translate(28.974706, 3.378089)"><g><path d="M 0.796875 -0.65625 L 0.578125 -0.421875 L 0.578125 0 L 0.203125 0 L 0.203125 -1.65625 L 0.578125 -1.65625 L 0.578125 -0.890625 L 1.3125 -1.65625 L 1.75 -1.65625 L 1.046875 -0.921875 L 1.78125 0 L 1.328125 0 Z M 0.796875 -0.65625 "/></g></g></g><g fill="#ffffff" fill-opacity="1"><g transform="translate(32.205525, 3.378089)"><g><path d="M 0.546875 -1.34375 L 0.015625 -1.34375 L 0.015625 -1.65625 L 1.453125 -1.65625 L 1.453125 -1.34375 L 0.921875 -1.34375 L 0.921875 0 L 0.546875 0 Z M 0.546875 -1.34375 "/></g></g></g><g fill="#ffffff" fill-opacity="1"><g transform="translate(35.146731, 3.378089)"><g><path d="M 0.9375 0.03125 C 0.695312 0.03125 0.507812 -0.03125 0.375 -0.15625 C 0.25 -0.289062 0.1875 -0.484375 0.1875 -0.734375 L 0.1875 -1.65625 L 0.5625 -1.65625 L 0.5625 -0.75 C 0.5625 -0.445312 0.6875 -0.296875 0.9375 -0.296875 C 1.0625 -0.296875 1.15625 -0.332031 1.21875 -0.40625 C 1.28125 -0.476562 1.3125 -0.59375 1.3125 -0.75 L 1.3125 -1.65625 L 1.6875 -1.65625 L 1.6875 -0.734375 C 1.6875 -0.484375 1.617188 -0.289062 1.484375 -0.15625 C 1.359375 -0.03125 1.175781 0.03125 0.9375 0.03125 Z M 0.9375 0.03125 "/></g></g></g><g fill="#ffffff" fill-opacity="1"><g transform="translate(38.491495, 3.378089)"><g/></g></g><g fill="#ffffff" fill-opacity="1"><g transform="translate(40.637458, 3.378089)"><g><path d="M 0.203125 -1.65625 L 0.578125 -1.65625 L 0.578125 -0.3125 L 1.421875 -0.3125 L 1.421875 0 L 0.203125 0 Z M 0.203125 -1.65625 "/></g></g></g><g fill="#ffffff" fill-opacity="1"><g transform="translate(43.54543, 3.378089)"><g><path d="M 1 0.03125 C 0.832031 0.03125 0.675781 -0.00390625 0.53125 -0.078125 C 0.394531 -0.148438 0.285156 -0.253906 0.203125 -0.390625 C 0.128906 -0.523438 0.09375 -0.671875 0.09375 -0.828125 C 0.09375 -0.992188 0.128906 -1.140625 0.203125 -1.265625 C 0.285156 -1.398438 0.394531 -1.503906 0.53125 -1.578125 C 0.675781 -1.648438 0.832031 -1.6875 1 -1.6875 C 1.175781 -1.6875 1.332031 -1.648438 1.46875 -1.578125 C 1.601562 -1.503906 1.707031 -1.398438 1.78125 -1.265625 C 1.863281 -1.140625 1.90625 -0.992188 1.90625 -0.828125 C 1.90625 -0.671875 1.863281 -0.523438 1.78125 -0.390625 C 1.707031 -0.253906 1.601562 -0.148438 1.46875 -0.078125 C 1.332031 -0.00390625 1.175781 0.03125 1 0.03125 Z M 1 -0.296875 C 1.101562 -0.296875 1.191406 -0.316406 1.265625 -0.359375 C 1.347656 -0.410156 1.410156 -0.472656 1.453125 -0.546875 C 1.492188 -0.628906 1.515625 -0.722656 1.515625 -0.828125 C 1.515625 -0.929688 1.492188 -1.023438 1.453125 -1.109375 C 1.410156 -1.191406 1.347656 -1.253906 1.265625 -1.296875 C 1.191406 -1.335938 1.101562 -1.359375 1 -1.359375 C 0.90625 -1.359375 0.816406 -1.335938 0.734375 -1.296875 C 0.660156 -1.253906 0.597656 -1.191406 0.546875 -1.109375 C 0.503906 -1.023438 0.484375 -0.929688 0.484375 -0.828125 C 0.484375 -0.722656 0.503906 -0.628906 0.546875 -0.546875 C 0.597656 -0.472656 0.660156 -0.410156 0.734375 -0.359375 C 0.816406 -0.316406 0.90625 -0.296875 1 -0.296875 Z M 1 -0.296875 "/></g></g></g></g></g><g clip-path="url(#cbe07e1a95)"><g transform="matrix(1, 0, 0, 1, 37, 0.000000000000005718)"><g clip-path="url(#ba52fbcdb1)"><g clip-path="url(#15411e5d4c)"><path fill="#ffffff" d="M 13.0625 25.984375 C 12.84375 27.371094 11.644531 28.429688 10.191406 28.429688 C 8.742188 28.429688 7.542969 27.371094 7.320312 25.984375 C 7.304688 25.867188 7.335938 25.753906 7.410156 25.660156 C 7.488281 25.566406 7.59375 25.515625 7.710938 25.515625 L 12.667969 25.515625 C 12.785156 25.515625 12.890625 25.566406 12.96875 25.660156 C 13.050781 25.753906 13.082031 25.859375 13.0625 25.984375 Z M 7.03125 21.054688 C 6.113281 21.054688 5.367188 21.800781 5.367188 22.71875 C 5.367188 23.636719 6.113281 24.378906 7.03125 24.378906 L 13.351562 24.378906 C 14.269531 24.378906 15.015625 23.636719 15.015625 22.71875 C 15.015625 22.167969 14.742188 21.675781 14.328125 21.375 L 7.777344 16.273438 C 7.285156 15.886719 6.761719 15.460938 6.25 15.082031 C 5.539062 14.507812 4.953125 13.78125 4.546875 12.957031 C 4.144531 12.136719 3.914062 11.195312 3.914062 10.195312 C 3.914062 8.460938 4.617188 6.890625 5.753906 5.753906 C 6.890625 4.617188 8.457031 3.914062 10.191406 3.914062 C 11.925781 3.914062 13.496094 4.617188 14.632812 5.753906 C 15.769531 6.890625 16.472656 8.460938 16.472656 10.195312 C 16.472656 11.394531 16.140625 12.515625 15.566406 13.453125 C 14.96875 14.4375 14.105469 15.25 13.074219 15.773438 C 12.265625 16.195312 11.945312 17.195312 12.359375 18.007812 C 12.777344 18.816406 13.78125 19.136719 14.589844 18.722656 C 16.160156 17.910156 17.476562 16.679688 18.394531 15.175781 C 19.277344 13.722656 19.792969 12.015625 19.792969 10.195312 C 19.792969 7.542969 18.714844 5.144531 16.980469 3.40625 C 15.242188 1.671875 12.84375 0.59375 10.191406 0.59375 C 7.542969 0.59375 5.144531 1.671875 3.402344 3.40625 C 1.671875 5.140625 0.59375 7.542969 0.59375 10.195312 C 0.59375 11.695312 0.949219 13.128906 1.574219 14.414062 C 2.203125 15.6875 3.097656 16.800781 4.183594 17.679688 C 4.722656 18.128906 5.398438 18.632812 5.953125 19.066406 L 8.511719 21.054688 Z M 7.03125 21.054688 " fill-opacity="1" fill-rule="evenodd"/></g></g></g></g></svg>